<?xml version="1.0" encoding="UTF-8"?>
<svg xmlns="http://www.w3.org/2000/svg" version="1.1" width="407" height="332" style="background: transparent;">

<path d="M0 0 C0 0.66 0 1.32 0 2 C0.5775 2.0825 1.155 2.165 1.75 2.25 C4.61735579 3.20578526 5.91800845 4.85084743 8 7 C8.99 7.33 9.98 7.66 11 8 C12.578125 9.6015625 12.578125 9.6015625 14.25 11.625 C17.64686328 15.63100542 21.25177275 19.32607681 25 23 C26.66807969 24.66525244 28.33454062 26.33212692 30 28 C31.05199981 29.05216685 32.10408732 30.10424602 33.15625 31.15625 C39.84375 37.84375 39.84375 37.84375 41.45703125 39.4609375 C42.88922436 40.88950481 44.3347077 42.30471427 45.78125 43.71875 C48.6744638 46.69346278 50.34977309 48.9272216 50.6875 53.0625 C50.47166533 57.24925662 49.46317498 59.11019468 46.609375 62.14453125 C45.79299561 63.01360107 44.97661621 63.8826709 44.13549805 64.77807617 C43.09268515 65.85433577 42.0472401 66.92804774 41 68 C40.35656647 68.65996979 39.71313293 69.31993958 39.05020142 69.99990845 C34.41310168 74.74143631 29.73986263 79.4459056 25.05004883 84.13525391 C22.53895036 86.64857044 20.03599741 89.16982332 17.53320312 91.69140625 C15.94059235 93.28694577 14.34751082 94.88201557 12.75390625 96.4765625 C12.00500626 97.23264801 11.25610626 97.98873352 10.48451233 98.76773071 C9.79296555 99.45620087 9.10141876 100.14467102 8.38891602 100.85400391 C7.78096695 101.46337799 7.17301788 102.07275208 6.54664612 102.70059204 C5 104 5 104 3 104 C3 104.66 3 105.32 3 106 C-0.465 106.495 -0.465 106.495 -4 107 C-4 107.66 -4 108.32 -4 109 C-8.48122305 111.24061152 -13.15785628 110.23674372 -17.765625 108.94140625 C-22.84395755 106.9405645 -26.29772226 103.48159325 -30.125 99.6875 C-30.80175781 99.03587891 -31.47851562 98.38425781 -32.17578125 97.71289062 C-34.72626315 95.24874032 -37.26169319 92.78008976 -39.69970703 90.20410156 C-43.01129482 86.69024782 -43.01129482 86.69024782 -47.625 85.375 C-51.49486188 86.09164109 -52.50993432 87.06527973 -55 90 C-56.485 90.495 -56.485 90.495 -58 91 C-58 91.99 -58 92.98 -58 94 C-57.13375 94.0928125 -57.13375 94.0928125 -56.25 94.1875 C-53.0963115 95.32633196 -52.03751849 97.36321136 -50 100 C-48.97945843 100.89954953 -47.93679268 101.77453499 -46.875 102.625 C-44 105 -44 105 -42 108 C-41.03711372 109.18013918 -40.05685179 110.3462483 -39.0625 111.5 C-38.55847656 112.0878125 -38.05445313 112.675625 -37.53515625 113.28125 C-36.53147327 114.40496631 -35.49132716 115.49739684 -34.4140625 116.55078125 C-31.1547604 119.89111573 -30.07845731 123.30509237 -29.5625 127.875 C-29.70747021 131.86549589 -31.06788243 134.75200371 -33.00390625 138.1953125 C-34.11266662 140.06476686 -34.11266662 140.06476686 -34.8125 142.5625 C-36.32570738 145.66855725 -38.44528142 147.47620677 -40.93359375 149.83984375 C-44.26121494 153.31843452 -46.98162275 157.2307753 -49.7890625 161.1328125 C-52.00678926 164.00880445 -54.40553382 166.46478753 -57 169 C-57.91420017 170.08900847 -58.81455905 171.19014735 -59.6875 172.3125 C-60.450625 173.199375 -61.21375 174.08625 -62 175 C-62.66 175 -63.32 175 -64 175 C-64.226875 175.53625 -64.45375 176.0725 -64.6875 176.625 C-66.4146506 179.75032013 -68.71727716 182.26073259 -71 185 C-71.68096422 186.32608822 -72.35330586 187.65686601 -73 189 C-77.16358033 191.08179017 -82.45434165 190.32766869 -87 190 C-91.84187312 188.32735292 -94.50341798 185.667147 -98 182 C-99.15794373 181.01053307 -100.32514114 180.031822 -101.5 179.0625 C-104.77318775 176.29941943 -107.30882312 173.32856088 -110 170 C-111.65179987 168.31859798 -113.32175164 166.65500392 -115 165 C-117.50282944 162.52367609 -120.00174634 160.04343903 -122.5 157.5625 C-123.15097656 156.91990234 -123.80195312 156.27730469 -124.47265625 155.61523438 C-140.02257409 140.14385148 -140.02257409 140.14385148 -140.3125 130.5 C-140.16700322 122.07331175 -137.48814399 116.15264828 -131.5625 110.1875 C-130.04858473 108.78416637 -128.52756593 107.38846212 -127 106 C-123.65782599 102.68429574 -120.34947948 99.33517376 -117.03909302 95.98779297 C-114.42642937 93.3481884 -111.80829574 90.71403648 -109.18994141 88.08007812 C-107.81508993 86.69514852 -106.44203605 85.30843203 -105.07080078 83.91992188 C-103.07542423 81.90013558 -101.0735239 79.88701239 -99.0703125 77.875 C-98.46591339 77.26027832 -97.86151428 76.64555664 -97.23880005 76.01220703 C-93.41014967 72.18256623 -89.45828127 69.07289517 -85 66 C-83.04137277 64.11713678 -83.04137277 64.11713678 -81.5 62.1875 C-80.92894531 61.51074219 -80.35789063 60.83398438 -79.76953125 60.13671875 C-79.18558594 59.43160156 -78.60164063 58.72648437 -78 58 C-76.73562733 56.49455019 -75.46497148 54.99435069 -74.1875 53.5 C-73.62417969 52.8296875 -73.06085938 52.159375 -72.48046875 51.46875 C-71 50 -71 50 -69 50 C-68.34 48.68 -67.68 47.36 -67 46 C-66.34 46 -65.68 46 -65 46 C-64.67 45.01 -64.34 44.02 -64 43 C-63.34 43 -62.68 43 -62 43 C-61.67 42.01 -61.34 41.02 -61 40 C-59.34997172 38.64613064 -57.6825613 37.31321858 -56 36 C-55.34 35.01 -54.68 34.02 -54 33 C-53.34 33 -52.68 33 -52 33 C-51.67 32.01 -51.34 31.02 -51 30 C-50.34 30 -49.68 30 -49 30 C-49 29.34 -49 28.68 -49 28 C-47.57519531 26.59863281 -47.57519531 26.59863281 -45.578125 24.953125 C-40.70013734 20.80576105 -36.23736137 16.31215073 -31.75 11.75 C-30.18468099 10.15910388 -28.61705731 8.57047132 -27.046875 6.984375 C-26.02352051 5.94361816 -26.02352051 5.94361816 -24.97949219 4.88183594 C-18.34926951 -1.42129139 -8.83905619 -2.82849798 0 0 Z " fill="#8864E9" transform="translate(201,45)"/>
<path d="M0 0 C1.65902344 0.30164063 1.65902344 0.30164063 3.3515625 0.609375 C3.3515625 1.269375 3.3515625 1.929375 3.3515625 2.609375 C3.9084375 2.691875 4.4653125 2.774375 5.0390625 2.859375 C10.12766331 4.50973202 13.70022181 8.86675079 17.3515625 12.609375 C20.73057749 16.00781391 24.14287279 19.37049967 27.5675354 22.7227478 C30.32187562 25.42332585 33.06543504 28.13475001 35.80859375 30.84667969 C37.2539361 32.27183933 38.70283851 33.69339748 40.15527344 35.11132812 C42.26414065 37.17150714 44.35966921 39.24448911 46.453125 41.3203125 C47.10004303 41.94658539 47.74696106 42.57285828 48.41348267 43.21810913 C52.97788894 47.78023332 55.82055083 51.86626334 56.75 58.41796875 C56.74226562 59.28550781 56.73453125 60.15304688 56.7265625 61.046875 C56.73429688 61.91183594 56.74203125 62.77679688 56.75 63.66796875 C55.74716305 71.07126505 52.92725306 75.77805702 47.69018555 80.82250977 C47.12392456 81.38789459 46.55766357 81.95327942 45.97424316 82.53579712 C44.11539744 84.38612187 42.23961337 86.21820603 40.36328125 88.05078125 C39.05798141 89.34419611 37.75386677 90.63880806 36.45088196 91.93455505 C33.02640934 95.33435087 29.58764097 98.71930059 26.1451416 102.10083008 C21.30415058 106.86129224 16.48275778 111.64161374 11.65937805 116.41990662 C9.09468565 118.96055386 6.52459306 121.49553176 3.94987488 124.02601624 C2.76693061 125.19252838 1.58401201 126.35906654 0.40112305 127.52563477 C-0.12428574 128.03959305 -0.64969452 128.55355133 -1.19102478 129.08308411 C-3.85649366 131.71738262 -6.36895149 134.41291419 -8.78721619 137.2772522 C-10.87332515 139.74703397 -12.97795242 141.94310965 -15.47753906 144.00708008 C-20.00766274 147.86820976 -24.18996972 152.02460675 -28.3828125 156.24609375 C-29.58348358 157.44888725 -29.58348358 157.44888725 -30.80841064 158.67597961 C-33.34080004 161.21391748 -35.86967619 163.75532267 -38.3984375 166.296875 C-40.11044394 168.01390437 -41.82268145 169.73070338 -43.53515625 171.44726562 C-47.29776933 175.21965394 -51.05817576 178.99422564 -54.81658936 182.77079773 C-55.42109924 183.37752823 -56.02560913 183.98425873 -56.6484375 184.609375 C-57.66082489 185.65319084 -57.66082489 185.65319084 -58.69366455 186.71809387 C-63.63650539 191.50038923 -68.21776407 191.75081767 -74.8359375 191.734375 C-76.40408203 191.73824219 -76.40408203 191.73824219 -78.00390625 191.7421875 C-80.6484375 191.609375 -80.6484375 191.609375 -82.6484375 190.609375 C-82.6484375 189.949375 -82.6484375 189.289375 -82.6484375 188.609375 C-83.3290625 188.568125 -84.0096875 188.526875 -84.7109375 188.484375 C-88.9343336 187.22634212 -91.49039597 184.59529578 -94.6484375 181.609375 C-95.855 180.495625 -95.855 180.495625 -97.0859375 179.359375 C-98.6484375 177.609375 -98.6484375 177.609375 -98.6484375 175.609375 C-99.6384375 175.279375 -100.6284375 174.949375 -101.6484375 174.609375 C-103.0859375 173.296875 -103.0859375 173.296875 -104.6484375 171.609375 C-105.2259375 171.0525 -105.8034375 170.495625 -106.3984375 169.921875 C-109.02191886 167.22551916 -111.44042562 164.38522543 -113.8671875 161.51171875 C-115.61074918 159.53131287 -115.61074918 159.53131287 -117.8671875 157.98828125 C-118.455 157.53324219 -119.0428125 157.07820312 -119.6484375 156.609375 C-119.6484375 155.949375 -119.6484375 155.289375 -119.6484375 154.609375 C-120.6384375 154.279375 -121.6284375 153.949375 -122.6484375 153.609375 C-124.8359375 151.671875 -124.8359375 151.671875 -126.6484375 149.609375 C-126.6484375 148.949375 -126.6484375 148.289375 -126.6484375 147.609375 C-127.2259375 147.58875 -127.8034375 147.568125 -128.3984375 147.546875 C-131.34829115 146.31776931 -132.45611398 144.48482081 -133.87255859 141.68139648 C-135.3050625 137.85582674 -135.6444211 134.60042357 -134.6484375 130.609375 C-132.12721706 126.94679125 -129.03304405 124.0517475 -125.7734375 121.046875 C-124.93167969 120.22896484 -124.08992187 119.41105469 -123.22265625 118.56835938 C-116.99982378 112.609375 -116.99982378 112.609375 -114.6484375 112.609375 C-114.1534375 111.124375 -114.1534375 111.124375 -113.6484375 109.609375 C-110.1834375 109.114375 -110.1834375 109.114375 -106.6484375 108.609375 C-106.3184375 109.599375 -105.9884375 110.589375 -105.6484375 111.609375 C-104.32505118 112.29557531 -102.98893802 112.95723961 -101.6484375 113.609375 C-99.64494784 115.27184514 -97.64509348 116.93870367 -95.6484375 118.609375 C-93.00261383 120.32916038 -90.34718694 121.76000028 -87.5234375 123.171875 C-82.87795927 125.49461412 -81.47509144 126.86007477 -79.6484375 131.609375 C-78.9884375 131.939375 -78.3284375 132.269375 -77.6484375 132.609375 C-77.63385498 131.66320312 -77.61927246 130.71703125 -77.60424805 129.7421875 C-77.54519007 126.1484246 -77.4679928 122.55522028 -77.38598633 118.96191406 C-77.35323186 117.42229442 -77.32505576 115.88256889 -77.30200195 114.34277344 C-76.86398264 85.82492014 -76.86398264 85.82492014 -72.6484375 81.609375 C-66.60355317 80.90648147 -63.4187748 83.44816537 -58.8918457 86.97973633 C-56.96496808 88.5291764 -55.05503187 90.09755212 -53.1484375 91.671875 C-51.72854877 92.83416966 -50.30796282 93.99561303 -48.88671875 95.15625 C-47.82251709 96.02540039 -47.82251709 96.02540039 -46.73681641 96.91210938 C-32.67676865 109.53849671 -32.67676865 109.53849671 -16.6484375 118.609375 C-20.21146868 108.75249407 -20.21146868 108.75249407 -26.6484375 100.609375 C-26.6484375 99.949375 -26.6484375 99.289375 -26.6484375 98.609375 C-27.3084375 98.609375 -27.9684375 98.609375 -28.6484375 98.609375 C-32.6484375 94.13878676 -32.6484375 94.13878676 -32.6484375 91.609375 C-33.3084375 91.609375 -33.9684375 91.609375 -34.6484375 91.609375 C-35.76953125 90.28125 -35.76953125 90.28125 -37.0859375 88.359375 C-40.3831903 83.77117783 -44.14331592 79.72364133 -48.04077148 75.64746094 C-51.6484375 71.81840833 -51.6484375 71.81840833 -51.6484375 69.609375 C-52.3084375 69.609375 -52.9684375 69.609375 -53.6484375 69.609375 C-55.45319688 64.19509686 -55.96808159 57.56380206 -53.6015625 52.265625 C-52.2734375 50.359375 -52.2734375 50.359375 -49.6484375 47.609375 C-48.9884375 47.609375 -48.3284375 47.609375 -47.6484375 47.609375 C-47.42671875 47.06925781 -47.205 46.52914062 -46.9765625 45.97265625 C-45.21525603 42.8385668 -42.85434924 40.38893101 -40.3984375 37.796875 C-39.40392592 36.73402828 -38.4104298 35.67023045 -37.41796875 34.60546875 C-36.94053223 34.0935498 -36.4630957 33.58163086 -35.97119141 33.05419922 C-34.27982531 31.20674544 -32.67871208 29.29204689 -31.0859375 27.359375 C-30.2815625 26.451875 -29.4771875 25.544375 -28.6484375 24.609375 C-27.9884375 24.609375 -27.3284375 24.609375 -26.6484375 24.609375 C-26.40689941 24.04766602 -26.16536133 23.48595703 -25.91650391 22.90722656 C-23.23411018 18.04648537 -18.8802785 14.29898082 -15.0234375 10.359375 C-13.70666016 8.95558594 -13.70666016 8.95558594 -12.36328125 7.5234375 C-4.98672841 0.00439553 -4.98672841 0.00439553 0 0 Z " fill="#8560E7" transform="translate(265.6484375,112.390625)"/>
<path d="M0 0 C0.5774963 2.22748572 1.03973662 4.33378762 1.3125 6.625 C1.6528125 7.800625 1.6528125 7.800625 2 9 C2.60070312 9.28488281 3.20140625 9.56976563 3.8203125 9.86328125 C6.58324297 11.30416434 7.75475199 13.04297648 9.5625 15.5625 C12.06734287 19.19897414 12.06734287 19.19897414 16 21 C18.97319997 24.28198929 23 29.38892175 23 34 C24.0828125 34.61875 24.0828125 34.61875 25.1875 35.25 C28.27928176 37.17377532 30.49773598 39.36603787 33 42 C33.556875 42.53625 34.11375 43.0725 34.6875 43.625 C36 45 36 45 38 48 C38.96288628 49.18013918 39.94314821 50.3462483 40.9375 51.5 C41.44152344 52.0878125 41.94554687 52.675625 42.46484375 53.28125 C43.46852673 54.40496631 44.50867284 55.49739684 45.5859375 56.55078125 C48.8452396 59.89111573 49.92154269 63.30509237 50.4375 67.875 C50.29252979 71.86549589 48.93211757 74.75200371 46.99609375 78.1953125 C45.88733338 80.06476686 45.88733338 80.06476686 45.1875 82.5625 C43.67429262 85.66855725 41.55471858 87.47620677 39.06640625 89.83984375 C35.73878506 93.31843452 33.01837725 97.2307753 30.2109375 101.1328125 C27.99321074 104.00880445 25.59446618 106.46478753 23 109 C22.08579983 110.08900847 21.18544095 111.19014735 20.3125 112.3125 C19.549375 113.199375 18.78625 114.08625 18 115 C17.34 115 16.68 115 16 115 C15.773125 115.53625 15.54625 116.0725 15.3125 116.625 C13.5853494 119.75032013 11.28272284 122.26073259 9 125 C8.31903578 126.32608822 7.64669414 127.65686601 7 129 C2.83641967 131.08179017 -2.45434165 130.32766869 -7 130 C-11.84187312 128.32735292 -14.50341798 125.667147 -18 122 C-19.15794373 121.01053307 -20.32514114 120.031822 -21.5 119.0625 C-24.77318775 116.29941943 -27.30882312 113.32856088 -30 110 C-31.65179987 108.31859798 -33.32175164 106.65500392 -35 105 C-37.50282944 102.52367609 -40.00174634 100.04343903 -42.5 97.5625 C-43.15097656 96.91990234 -43.80195312 96.27730469 -44.47265625 95.61523438 C-60.02257409 80.14385148 -60.02257409 80.14385148 -60.3125 70.5 C-60.16700322 62.07331175 -57.48814399 56.15264828 -51.5625 50.1875 C-50.04858473 48.78416637 -48.52756593 47.38846212 -47 46 C-43.65782599 42.68429574 -40.34947948 39.33517376 -37.03909302 35.98779297 C-34.42642937 33.3481884 -31.80829574 30.71403648 -29.18994141 28.08007812 C-27.81508993 26.69514852 -26.44203605 25.30843203 -25.07080078 23.91992188 C-23.07542423 21.90013558 -21.0735239 19.88701239 -19.0703125 17.875 C-18.16371384 16.95291748 -18.16371384 16.95291748 -17.23880005 16.01220703 C-13.41051859 12.18293525 -9.45893466 9.07120675 -5 6 C-3.25629256 4.30771185 -3.25629256 4.30771185 -2.0625 2.6875 C-1.381875 1.800625 -0.70125 0.91375 0 0 Z " fill="#6748C4" transform="translate(121,105)"/>
<path d="M0 0 C0.02709444 2.08326131 0.04643873 4.16662441 0.0625 6.25 C0.07410156 7.41015625 0.08570313 8.5703125 0.09765625 9.765625 C0 13 0 13 -0.48632812 14.71289062 C-1.23797103 18.05955922 -1.23747344 21.41310966 -1.31640625 24.828125 C-1.33718735 25.57713074 -1.35796844 26.32613647 -1.37937927 27.09783936 C-1.44457088 29.48180288 -1.50361783 31.86587312 -1.5625 34.25 C-1.60571416 35.86980254 -1.64932937 37.48959443 -1.69335938 39.109375 C-1.80022096 43.07280832 -1.90157333 47.0363486 -2 51 C-2.99 51 -3.98 51 -5 51 C-5.66 50.34 -6.32 49.68 -7 49 C-7 47.68 -7 46.36 -7 45 C-9.07645383 43.92332023 -11.09866174 42.96432097 -13.30078125 42.16796875 C-19.42748567 39.51690562 -25.35916799 34.98101766 -29.875 30.0625 C-32.26886764 27.73904023 -33.71933642 27.28119974 -37 27 C-35.71034824 25.62437146 -34.37310707 24.29233607 -33 23 C-32.34 23 -31.68 23 -31 23 C-31 22.34 -31 21.68 -31 21 C-29.49609375 19.5546875 -29.49609375 19.5546875 -27.4375 17.875 C-24.50549985 15.39645506 -21.95321515 12.88929006 -19.5 9.9375 C-13.69004548 3.17898148 -9.20337405 -0.98607579 0 0 Z " fill="#19133F" transform="translate(191,194)"/>
<path d="M0 0 C1.0073108 1.32781878 2.00612666 2.66209359 3 4 C3.78375 4.45375 4.5675 4.9075 5.375 5.375 C9.90790737 8.18108551 12.84125629 11.75672963 14.3125 16.875 C14.539375 17.90625 14.76625 18.9375 15 20 C8.83463712 17.06411291 -0.88764728 12.22470543 -4 6 C-6.52733235 5.34444881 -6.52733235 5.34444881 -9 5 C-4.16129032 0 -4.16129032 0 0 0 Z " fill="#3E2D80" transform="translate(163,216)"/>
<path d="M0 0 C3.375 0.625 3.375 0.625 7 2 C7.72045764 3.9812585 8.38001259 5.98504093 9 8 C10.67489685 9.45845221 10.67489685 9.45845221 12.625 10.8125 C14.91221537 12.60891707 15.86677876 13.45323783 16.5625 16.30859375 C16.62386794 18.70577882 16.63878237 20.68557112 16 23 C15.01 23.66 14.02 24.32 13 25 C12.5978125 23.5459375 12.5978125 23.5459375 12.1875 22.0625 C11.795625 21.051875 11.40375 20.04125 11 19 C10.01 18.67 9.02 18.34 8 18 C7.32676943 15.72171642 7.0509564 13.47983723 6.72265625 11.12890625 C6.19993036 8.8256972 6.19993036 8.8256972 4.01171875 7.8359375 C3.34785156 7.56007812 2.68398437 7.28421875 2 7 C0.30933342 4.3794668 0 3.17370278 0 0 Z " fill="#432F8C" transform="translate(150,166)"/>
<path d="M0 0 C0.77321882 2.98241547 1.41196203 5.97580475 2 9 C1.278125 8.773125 0.55625 8.54625 -0.1875 8.3125 C-3.87755298 7.90249411 -5.08594103 8.75841618 -8 11 C-10.644973 13.86538742 -12.42194191 16.0981079 -13 20 C-12.01 20 -11.02 20 -10 20 C-10.33 20.66 -10.66 21.32 -11 22 C-11.99 21.67 -12.98 21.34 -14 21 C-14.33 21.66 -14.66 22.32 -15 23 C-15 22.01 -15 21.02 -15 20 C-15.886875 20.763125 -16.77375 21.52625 -17.6875 22.3125 C-20.31864364 24.51546225 -23.04909925 26.24541036 -26 28 C-27.75149165 29.58245275 -27.75149165 29.58245275 -29 31 C-29.66 30.67 -30.32 30.34 -31 30 C-27.98762645 26.9290813 -24.96363438 23.86985464 -21.9375 20.8125 C-21.08994141 19.94818359 -20.24238281 19.08386719 -19.36914062 18.19335938 C-14.80974345 13.5987545 -10.33644035 9.64838269 -5 6 C-3.25629256 4.30771185 -3.25629256 4.30771185 -2.0625 2.6875 C-1.381875 1.800625 -0.70125 0.91375 0 0 Z " fill="#362868" transform="translate(121,105)"/>
<path d="M0 0 C0.33 0 0.66 0 1 0 C1 14.19 1 28.38 1 43 C-2 43 -2 43 -4.5625 40.5625 C-7.16874638 37.28518419 -7.90105857 34.13502292 -8.54296875 30.05078125 C-8.93646795 27.70483238 -8.93646795 27.70483238 -11 25 C-6.33029133 27.33485433 -4.97698611 28.05753473 -3 33 C-2.34 33.33 -1.68 33.66 -1 34 C-0.67 22.78 -0.34 11.56 0 0 Z " fill="#523BA2" transform="translate(189,211)"/>
<path d="M0 0 C0.33 0.99 0.66 1.98 1 3 C-0.98 3 -2.96 3 -5 3 C-5.33 4.65 -5.66 6.3 -6 8 C-8.64 8.66 -11.28 9.32 -14 10 C-14 10.99 -14 11.98 -14 13 C-14.66 13 -15.32 13 -16 13 C-16.061875 13.598125 -16.12375 14.19625 -16.1875 14.8125 C-17 17 -17 17 -19.375 18.8125 C-22 20 -22 20 -25 19 C-22.54976242 16.49195282 -20.08852402 13.9949924 -17.625 11.5 C-16.57699219 10.42685547 -16.57699219 10.42685547 -15.5078125 9.33203125 C-14.8375 8.65527344 -14.1671875 7.97851562 -13.4765625 7.28125 C-12.85861816 6.65283203 -12.24067383 6.02441406 -11.60400391 5.37695312 C-10 4 -10 4 -8 4 C-7.67 3.01 -7.34 2.02 -7 1 C-4.53721199 -0.231394 -2.7204945 -0.07159196 0 0 Z " fill="#6F51BB" transform="translate(159,221)"/>
<path d="M0 0 C5.29441695 -0.50423019 7.81413519 0.81076967 12 4 C8.7807732 5.0730756 8.09793558 4.79946725 5 4 C4.01 4.495 4.01 4.495 3 5 C2.814375 6.9490625 2.814375 6.9490625 2.625 8.9375 C2.4140625 11.12890625 2.4140625 11.12890625 2 13 C0 14.375 0 14.375 -2 15 C-2.33 15.66 -2.66 16.32 -3 17 C-2.88556397 14.9160597 -2.75804453 12.83283507 -2.625 10.75 C-2.55539063 9.58984375 -2.48578125 8.4296875 -2.4140625 7.234375 C-2.03751692 4.29305666 -1.5225877 2.50050989 0 0 Z " fill="#7457C4" transform="translate(193,194)"/>
<path d="M0 0 C11.57727837 5.57424514 11.57727837 5.57424514 15 10 C16.06675358 13.29631911 16.61283451 16.56223744 17 20 C16.34 20 15.68 20 15 20 C12 16.53846154 12 16.53846154 12 14 C11.34 14 10.68 14 10 14 C9.67 13.01 9.34 12.02 9 11 C8.154375 10.154375 7.30875 9.30875 6.4375 8.4375 C5.633125 7.633125 4.82875 6.82875 4 6 C4 5.34 4 4.68 4 4 C3.34 4 2.68 4 2 4 C1.34 2.68 0.68 1.36 0 0 Z " fill="#684BC4" transform="translate(166,229)"/>
<path d="M0 0 C0.33 0.66 0.66 1.32 1 2 C0 4 -1 6 -2 8 C-2 9.32 -2 10.64 -2 12 C-2.66 12 -3.32 12 -4 12 C-4 11.34 -4 10.68 -4 10 C-4.99 10 -5.98 10 -7 10 C-7 10.99 -7 11.98 -7 13 C-8.65 13.33 -10.3 13.66 -12 14 C-12.04125 14.556875 -12.0825 15.11375 -12.125 15.6875 C-13.46930374 19.24030274 -16.00974189 20.70958953 -19 23 C-19.66 22.67 -20.32 22.34 -21 22 C-19.71937515 20.2925002 -18.38232443 18.62626404 -17 17 C-16.34 17 -15.68 17 -15 17 C-14.34 15.68 -13.68 14.36 -13 13 C-12.34 13 -11.68 13 -11 13 C-10.67 12.01 -10.34 11.02 -10 10 C-9.34 10 -8.68 10 -8 10 C-7.67 9.01 -7.34 8.02 -7 7 C-5.34997172 5.64613064 -3.6825613 4.31321858 -2 3 C-1.34 2.01 -0.68 1.02 0 0 Z " fill="#7458BF" transform="translate(147,78)"/>
<path d="M0 0 C0.33 0 0.66 0 1 0 C1.0272415 1.41655793 1.04650467 2.83327045 1.0625 4.25 C1.07410156 5.03890625 1.08570313 5.8278125 1.09765625 6.640625 C1 9 1 9 0.51367188 10.65820312 C-0.22521216 14.02672767 -0.23703392 17.39409382 -0.31640625 20.828125 C-0.33718735 21.57713074 -0.35796844 22.32613647 -0.37937927 23.09783936 C-0.44457088 25.48180288 -0.50361783 27.86587312 -0.5625 30.25 C-0.60571416 31.86980254 -0.64932937 33.48959443 -0.69335938 35.109375 C-0.80022096 39.07280832 -0.90157333 43.0363486 -1 47 C-1.99 47 -2.98 47 -4 47 C-4.66 45.68 -5.32 44.36 -6 43 C-5.01 43.66 -4.02 44.32 -3 45 C-3.01571045 43.99211426 -3.0314209 42.98422852 -3.04760742 41.94580078 C-3.10241159 38.16251803 -3.13653123 34.37926946 -3.16479492 30.59570312 C-3.17976766 28.96641109 -3.20015321 27.33715855 -3.22631836 25.70800781 C-3.49791465 8.34714695 -3.49791465 8.34714695 0 0 Z " fill="#2F1E6B" transform="translate(190,198)"/>
<path d="M0 0 C4.87685861 1.35468295 6.48592381 3.71675909 9 8 C9.680625 7.835 10.36125 7.67 11.0625 7.5 C14.4164822 6.92910941 17.60389805 6.93340977 21 7 C21 7.33 21 7.66 21 8 C20.0925 8.0825 19.185 8.165 18.25 8.25 C14.90504186 8.71954223 14.90504186 8.71954223 12.875 11.125 C11 13 11 13 9.0625 13.125 C5.832902 11.36340109 4.17655583 8.96253433 2 6 C2 5.34 2 4.68 2 4 C0.68 3.67 -0.64 3.34 -2 3 C-1.34 2.67 -0.68 2.34 0 2 C0 1.34 0 0.68 0 0 Z " fill="#795BD0" transform="translate(135,122)"/>
<path d="M0 0 C1.25664978 2.90600261 2 4.79604584 2 8 C2.66 8 3.32 8 4 8 C4 8.99 4 9.98 4 11 C4.66 11 5.32 11 6 11 C7.625 13.5 7.625 13.5 9 16 C6.01517153 14.60484422 3.44642111 12.97667625 0.8125 11 C-0.22970703 10.2265625 -0.22970703 10.2265625 -1.29296875 9.4375 C-3 8 -3 8 -4 6 C-6.52733235 5.34444881 -6.52733235 5.34444881 -9 5 C-4.16129032 0 -4.16129032 0 0 0 Z " fill="#50399A" transform="translate(163,216)"/>
<path d="M0 0 C0 3.19633438 -0.33810135 4.34096216 -2 7 C-3.30582947 8.03565785 -4.64377755 9.03126968 -6 10 C-6.845625 10.86625 -7.69125 11.7325 -8.5625 12.625 C-11 15 -11 15 -14 16 C-14.73323796 18.01508358 -14.73323796 18.01508358 -15 20 C-16.32 20 -17.64 20 -19 20 C-19 20.66 -19 21.32 -19 22 C-20.32 22.33 -21.64 22.66 -23 23 C-22.67 22.34 -22.34 21.68 -22 21 C-21.34 21 -20.68 21 -20 21 C-20 20.34 -20 19.68 -20 19 C-18.671875 17.6953125 -18.671875 17.6953125 -16.75 16.125 C-10.82166218 11.10297282 -5.44825893 5.52998282 0 0 Z " fill="#755AB9" transform="translate(172,54)"/>
<path d="M0 0 C4.21519216 3.88241383 6.63605692 6.83794907 7.30078125 12.61328125 C7.3304068 19.43703188 7.19231978 25.68708148 2.2421875 30.82421875 C0.54263059 32.30014975 -1.17675969 33.68127276 -3 35 C-3 34.01 -3 33.02 -3 32 C-2.34 32 -1.68 32 -1 32 C-1 31.34 -1 30.68 -1 30 C-0.360625 29.566875 0.27875 29.13375 0.9375 28.6875 C3.60277349 26.50682169 3.53575319 25.37165105 4 22 C4.13884749 19.79446108 4.21952145 17.58469491 4.25 15.375 C4.27578125 14.24835938 4.3015625 13.12171875 4.328125 11.9609375 C3.96031456 8.64188617 3.44399584 8.08145937 1 6 C0.3125 2.8125 0.3125 2.8125 0 0 Z " fill="#7155B6" transform="translate(315,158)"/>
<path d="M0 0 C0.33 0 0.66 0 1 0 C1.144375 0.969375 1.28875 1.93875 1.4375 2.9375 C1.67562341 5.86486773 1.67562341 5.86486773 3 7 C3.66 7 4.32 7 5 7 C4.44271087 10.34373475 3.64826111 13.03312999 2 16 C-1.13786681 14.22187547 -1.99668036 13.00779393 -3.4375 9.625 C-4 6 -4 6 -2.6875 3.125 C-1 1 -1 1 0 0 Z " fill="#7C5CD6" transform="translate(125,101)"/>
<path d="M0 0 C1.670625 0.29390625 1.670625 0.29390625 3.375 0.59375 C3.375 0.92375 3.375 1.25375 3.375 1.59375 C1.7971875 1.6865625 1.7971875 1.6865625 0.1875 1.78125 C-4.32439699 2.74280182 -5.67150158 4.14800185 -8.625 7.59375 C-9.16125 8.08875 -9.6975 8.58375 -10.25 9.09375 C-11.76414408 10.63741104 -11.76414408 10.63741104 -13 12.96875 C-14.90001388 16.0380032 -16.8446849 18.28812284 -19.625 20.59375 C-21.78515625 20.2265625 -21.78515625 20.2265625 -23.625 19.59375 C-20.6584274 16.39429428 -17.64686309 13.24096444 -14.625 10.09375 C-13.78582031 9.18753906 -12.94664062 8.28132813 -12.08203125 7.34765625 C-4.95535714 0 -4.95535714 0 0 0 Z " fill="#68509E" transform="translate(265.625,112.40625)"/>
<path d="M0 0 C2.97 0.495 2.97 0.495 6 1 C6.2475 1.94875 6.495 2.8975 6.75 3.875 C7.6857077 7.08693191 7.6857077 7.08693191 10.125 8.375 C10.74375 8.58125 11.3625 8.7875 12 9 C12 10.65 12 12.3 12 14 C14.475 14.99 14.475 14.99 17 16 C17.33 18.31 17.66 20.62 18 23 C16 21 16 21 14.5625 18.5625 C13.14663647 16.01411146 13.14663647 16.01411146 11.3125 14.3125 C10.879375 13.879375 10.44625 13.44625 10 13 C10 12.34 10 11.68 10 11 C9.34 11 8.68 11 8 11 C4 6.52941176 4 6.52941176 4 4 C3.34 4 2.68 4 2 4 C1.34 2.68 0.68 1.36 0 0 Z " fill="#684DA0" transform="translate(229,200)"/>
<path d="M0 0 C0 3.63327194 -0.95586411 5.04735927 -3 8 C-3.99 8.66 -4.98 9.32 -6 10 C-6.38411275 12.609621 -6.60293197 15.0058074 -6.6875 17.625 C-6.72166016 18.33140625 -6.75582031 19.0378125 -6.79101562 19.765625 C-6.87351308 21.50985688 -6.93843335 23.25490395 -7 25 C-6.34 25 -5.68 25 -5 25 C-5.33 25.99 -5.66 26.98 -6 28 C-6 27.34 -6 26.68 -6 26 C-6.66 26 -7.32 26 -8 26 C-9.80475938 20.58572186 -10.31964409 13.95442706 -7.953125 8.65625 C-6.625 6.75 -6.625 6.75 -4 4 C-3.34 4 -2.68 4 -2 4 C-1.34 2.68 -0.68 1.36 0 0 Z " fill="#694FA5" transform="translate(220,156)"/>
<path d="M0 0 C0.66 0 1.32 0 2 0 C1.09591657 5.15791187 -2.105381 8.65628978 -6 12 C-8.54072534 12.92881449 -10.25310134 13 -13 13 C-10 11 -10 11 -8 11 C-7.95875 10.071875 -7.9175 9.14375 -7.875 8.1875 C-7 5 -7 5 -4 3.25 C-3.01 2.8375 -2.02 2.425 -1 2 C-0.67 1.34 -0.34 0.68 0 0 Z " fill="#7A57D8" transform="translate(133,221)"/>
<path d="M0 0 C1.9375 0.375 1.9375 0.375 4 1 C4.33 1.66 4.66 2.32 5 3 C5.66 3.165 6.32 3.33 7 3.5 C7.66 3.665 8.32 3.83 9 4 C9.33 4.66 9.66 5.32 10 6 C10.66 5.67 11.32 5.34 12 5 C13.66666667 8.33333333 15.33333333 11.66666667 17 15 C11.5231201 12.68285851 6.93566987 8.38978562 3 4 C3 3.34 3 2.68 3 2 C2.01 1.67 1.02 1.34 0 1 C0 0.67 0 0.34 0 0 Z " fill="#7357BF" transform="translate(164,286)"/>
<path d="M0 0 C0.58523437 0.22816406 1.17046875 0.45632812 1.7734375 0.69140625 C1.1340625 1.47515625 0.4946875 2.25890625 -0.1640625 3.06640625 C-2.20798563 5.48679906 -2.20798563 5.48679906 -3.2265625 7.69140625 C-4.55063919 8.3762735 -5.88565491 9.04010828 -7.2265625 9.69140625 C-8.57769455 10.66722384 -9.91603194 11.66170366 -11.2265625 12.69140625 C-10.14136312 7.74772017 -6.07101579 -0.84142149 0 0 Z " fill="#6E50C6" transform="translate(76.2265625,151.30859375)"/>
<path d="M0 0 C4.8 2.46153846 4.8 2.46153846 5.8125 5.1875 C5.874375 5.785625 5.93625 6.38375 6 7 C6.66 7 7.32 7 8 7 C11.65083143 11.4024732 12.45374191 14.32822615 12 20 C11.67 20 11.34 20 11 20 C10.5978125 18.5459375 10.5978125 18.5459375 10.1875 17.0625 C9.795625 16.051875 9.40375 15.04125 9 14 C8.01 13.67 7.02 13.34 6 13 C5.32676943 10.72171642 5.0509564 8.47983723 4.72265625 6.12890625 C4.1878197 3.81383748 4.1878197 3.81383748 1.93359375 2.71484375 C1.29550781 2.47894531 0.65742188 2.24304688 0 2 C0 1.34 0 0.68 0 0 Z " fill="#5238A4" transform="translate(152,171)"/>
<path d="M0 0 C3.10289535 3.10289535 2.93315979 6.7370797 3 11 C1.92338141 15.20859995 -0.52837168 18.45733274 -3 22 C-4 19 -4 19 -3.22265625 17.34375 C-2.83980469 16.7353125 -2.45695313 16.126875 -2.0625 15.5 C0.68747488 10.43475417 0.37236731 5.62688373 0 0 Z " fill="#2A1F4A" transform="translate(170,166)"/>
<path d="M0 0 C2.31 0 4.62 0 7 0 C7.33 0.66 7.66 1.32 8 2 C5.69 1.67 3.38 1.34 1 1 C0.566875 1.86625 0.566875 1.86625 0.125 2.75 C-0.24625 3.4925 -0.6175 4.235 -1 5 C-1.4640625 6.0828125 -1.4640625 6.0828125 -1.9375 7.1875 C-3 9 -3 9 -6 10 C-6.66 10.66 -7.32 11.32 -8 12 C-7.835 11.236875 -7.67 10.47375 -7.5 9.6875 C-6.90854604 6.96403764 -6.90854604 6.96403764 -7 4 C-5.02 3.67 -3.04 3.34 -1 3 C-0.67 2.01 -0.34 1.02 0 0 Z " fill="#3D2D55" transform="translate(150,130)"/>
<path d="M0 0 C0 0.66 0 1.32 0 2 C0.99 2 1.98 2 3 2 C2.67 2.66 2.34 3.32 2 4 C1.01 3.67 0.02 3.34 -1 3 C-1.33 3.66 -1.66 4.32 -2 5 C-2 4.01 -2 3.02 -2 2 C-2.886875 2.763125 -3.77375 3.52625 -4.6875 4.3125 C-7.31864364 6.51546225 -10.04909925 8.24541036 -13 10 C-14.75149165 11.58245275 -14.75149165 11.58245275 -16 13 C-16.66 12.67 -17.32 12.34 -18 12 C-14.48689154 8.32349115 -11.44126251 5.52071656 -7 3 C-6.484375 2.443125 -5.96875 1.88625 -5.4375 1.3125 C-4 0 -4 0 0 0 Z " fill="#563EA2" transform="translate(108,123)"/>
<path d="M0 0 C-0.99 0.33 -1.98 0.66 -3 1 C-3 1.66 -3 2.32 -3 3 C-6.33665865 4.11221955 -8.98779662 4.20253779 -12.5 4.25 C-13.6446875 4.27578125 -14.789375 4.3015625 -15.96875 4.328125 C-19 4 -19 4 -20.90625 2.484375 C-21.2671875 1.99453125 -21.628125 1.5046875 -22 1 C-21.38125 1.165 -20.7625 1.33 -20.125 1.5 C-15.74529271 2.20075317 -11.42571011 2.07734251 -7 2 C-7 1.34 -7 0.68 -7 0 C-2.25 -1.125 -2.25 -1.125 0 0 Z " fill="#594384" transform="translate(204,152)"/>
<path d="M0 0 C0.33 0.99 0.66 1.98 1 3 C-0.40709566 4.48827426 -1.82606201 5.96533185 -3.25 7.4375 C-4.43335938 8.67306641 -4.43335938 8.67306641 -5.640625 9.93359375 C-7.90734717 11.91885207 -9.0671937 12.6300359 -12 13 C-8.19524578 8.43969176 -4.25030379 4.14910608 0 0 Z " fill="#3C2C51" transform="translate(245,260)"/>
<path d="M0 0 C4.09417739 1.516362 6.69463767 4.39125261 9 8 C9.91376491 10.33830098 10.45781656 12.53552981 11 15 C9.1875 14.5 9.1875 14.5 7 13 C6.1112746 11.05180884 5.46324211 9.07600784 4.79296875 7.04296875 C3.70615024 4.24293878 2.00230545 2.20944049 0 0 Z " fill="#302267" transform="translate(167,221)"/>
<path d="M0 0 C0.33 0 0.66 0 1 0 C1.31985731 6.71700347 0.4793824 11.75726932 -2 18 C-2.33 18 -2.66 18 -3 18 C-3.36517527 11.42684522 -2.13619737 6.20514474 0 0 Z " fill="#281861" transform="translate(190,198)"/>
<path d="M0 0 C4.32034673 3.97926673 6.79250804 6.92496918 7.1953125 12.89453125 C7.16050781 14.33892578 7.16050781 14.33892578 7.125 15.8125 C7.10695313 16.78832031 7.08890625 17.76414063 7.0703125 18.76953125 C7.03550781 19.87361328 7.03550781 19.87361328 7 21 C6.67 21 6.34 21 6 21 C5.95101563 20.32453125 5.90203125 19.6490625 5.8515625 18.953125 C5.77679688 18.06109375 5.70203125 17.1690625 5.625 16.25 C5.52058594 14.92742187 5.52058594 14.92742187 5.4140625 13.578125 C4.99616748 10.97613712 4.39354867 9.22566767 3 7 C2.34 6.67 1.68 6.34 1 6 C0.375 2.9375 0.375 2.9375 0 0 Z " fill="#664D99" transform="translate(315,158)"/>
<path d="M0 0 C1.33333333 0.66666667 2.66666667 1.33333333 4 2 C4.70125 2.226875 5.4025 2.45375 6.125 2.6875 C9.0943655 4.76605585 9.2429305 7.59318726 10 11 C7.00675737 9.9024777 6.15389099 9.32317108 4.75 6.375 C4.5025 5.59125 4.255 4.8075 4 4 C3.34 4 2.68 4 2 4 C1.34 2.68 0.68 1.36 0 0 Z " fill="#6F53CC" transform="translate(166,229)"/>
<path d="M0 0 C3.35594497 0.5786112 4.64000861 1.64000861 7 4 C7.99 4 8.98 4 10 4 C10.28875 4.969375 10.5775 5.93875 10.875 6.9375 C11.64214682 10.10664203 11.64214682 10.10664203 14 11 C13.67 11.66 13.34 12.32 13 13 C12.278125 12.2575 11.55625 11.515 10.8125 10.75 C8.09288953 7.98732731 8.09288953 7.98732731 5.1875 5.8125 C4.465625 5.214375 3.74375 4.61625 3 4 C3 3.34 3 2.68 3 2 C2.01 1.67 1.02 1.34 0 1 C0 0.67 0 0.34 0 0 Z " fill="#7457C2" transform="translate(143,265)"/>
<path d="M0 0 C3.67056937 1.47797262 5.41085783 3.47615477 7.75 6.625 C8.67039063 7.85089844 8.67039063 7.85089844 9.609375 9.1015625 C10.29773438 10.04128906 10.29773438 10.04128906 11 11 C8 11 8 11 6 10 C5.33333333 8.66666667 4.66666667 7.33333333 4 6 C3.34 5.67 2.68 5.34 2 5 C2 4.01 2 3.02 2 2 C1.34 2 0.68 2 0 2 C0 1.34 0 0.68 0 0 Z " fill="#432D8F" transform="translate(123,114)"/>
<path d="M0 0 C0 3.19633438 -0.33810135 4.34096216 -2 7 C-3.9375 8.8125 -3.9375 8.8125 -6 10 C-6.99 9.67 -7.98 9.34 -9 9 C-6.03 6.03 -3.06 3.06 0 0 Z " fill="#7B5EC9" transform="translate(172,54)"/>
<path d="M0 0 C0 3.69349436 -0.88153908 5.00493457 -3 8 C-5.6875 10.3125 -5.6875 10.3125 -8 12 C-8.66 11.67 -9.32 11.34 -10 11 C-9.04882866 9.8274869 -8.08882991 8.66212985 -7.125 7.5 C-6.32449219 6.52546875 -6.32449219 6.52546875 -5.5078125 5.53125 C-5.01023438 5.0259375 -4.51265625 4.520625 -4 4 C-3.34 4 -2.68 4 -2 4 C-1.34 2.68 -0.68 1.36 0 0 Z " fill="#7356B1" transform="translate(241,133)"/>
<path d="M0 0 C0.77321882 2.98241547 1.41196203 5.97580475 2 9 C0.68 9 -0.64 9 -2 9 C-2.6875 6.75 -2.6875 6.75 -3 4 C-1.5625 1.6875 -1.5625 1.6875 0 0 Z " fill="#49348E" transform="translate(121,105)"/>
<path d="M0 0 C0.99 0.33 1.98 0.66 3 1 C3 1.66 3 2.32 3 3 C3.66 3 4.32 3 5 3 C6.5078125 4.53125 6.5078125 4.53125 8.125 6.5 C8.66382813 7.1496875 9.20265625 7.799375 9.7578125 8.46875 C10.37269531 9.22671875 10.37269531 9.22671875 11 10 C10.67 10.66 10.34 11.32 10 12 C5.22864787 8.42148591 2.70923672 5.31427203 0 0 Z " fill="#2A1F49" transform="translate(146,138)"/>
<path d="M0 0 C6.875 3.75 6.875 3.75 8 6 C5.69 6.33 3.38 6.66 1 7 C0.67 4.69 0.34 2.38 0 0 Z " fill="#7E5DCD" transform="translate(238,225)"/>
<path d="M0 0 C0.66 0 1.32 0 2 0 C1.49477778 4.37859255 -1.17827222 6.81651224 -4 10 C-4.8125 8.375 -4.8125 8.375 -5 6 C-2.6875 2.75 -2.6875 2.75 0 0 Z " fill="#7456C6" transform="translate(133,221)"/>
<path d="M0 0 C1.73937946 3.23027614 2.84180311 6.52540934 4 10 C4.63815344 11.34721283 5.29325371 12.68747118 6 14 C3.71216703 13.08486681 2.26550272 12.34515354 0.75 10.375 C-0.35953628 6.86146845 -0.12256679 3.67700382 0 0 Z " fill="#7253CB" transform="translate(62,174)"/>
<path d="M0 0 C0.33 1.32 0.66 2.64 1 4 C-1.64 5.65 -4.28 7.3 -7 9 C-5.04783565 5.09567131 -3.12613393 2.96160056 0 0 Z " fill="#6A52A2" transform="translate(230,145)"/>
<path d="M0 0 C2.31 0 4.62 0 7 0 C7 1.98 7 3.96 7 6 C5 4.625 5 4.625 3 3 C3 2.34 3 1.68 3 1 C2.01 0.67 1.02 0.34 0 0 Z " fill="#211751" transform="translate(160,215)"/>
<path d="M0 0 C2.84383123 1.2748209 5.13754018 2.45137078 7 5 C6.6875 7.1875 6.6875 7.1875 6 9 C6 8.34 6 7.68 6 7 C5.01 6.67 4.02 6.34 3 6 C3 5.01 3 4.02 3 3 C2.34 3 1.68 3 1 3 C0.67 2.01 0.34 1.02 0 0 Z " fill="#38287A" transform="translate(159,175)"/>
<path d="M0 0 C0.33 0.99 0.66 1.98 1 3 C0.67 3.66 0.34 4.32 0 5 C-2.3140622 5.73075648 -4.64828869 6.40138258 -7 7 C-2.25 1.125 -2.25 1.125 0 0 Z " fill="#745DB9" transform="translate(180,47)"/>
<path d="M0 0 C-3.79692186 2.82561627 -6.18569279 4.56638908 -11 4 C-10.34 3.67 -9.68 3.34 -9 3 C-9 2.34 -9 1.68 -9 1 C-2.25 -1.125 -2.25 -1.125 0 0 Z " fill="#61499B" transform="translate(208,299)"/>
<path d="M0 0 C1.32 0.33 2.64 0.66 4 1 C4 3.31 4 5.62 4 8 C3.34 8 2.68 8 2 8 C1.34 5.36 0.68 2.72 0 0 Z " fill="#422B8F" transform="translate(185,244)"/>
<path d="M0 0 C2.97 0.495 2.97 0.495 6 1 C6.33 2.65 6.66 4.3 7 6 C2.32307692 4.52307692 2.32307692 4.52307692 0.6875 1.875 C0.460625 1.25625 0.23375 0.6375 0 0 Z " fill="#7256B9" transform="translate(229,200)"/>
<path d="M0 0 C2.475 0.495 2.475 0.495 5 1 C5.33 2.65 5.66 4.3 6 6 C3.96166576 4.7260411 1.96147874 3.38938077 0 2 C0 1.34 0 0.68 0 0 Z " fill="#37277D" transform="translate(152,167)"/>
<path d="M0 0 C1.32 0.33 2.64 0.66 4 1 C4.33 2.65 4.66 4.3 5 6 C4.01 6 3.02 6 2 6 C1.34 6.66 0.68 7.32 0 8 C0.185625 7.236875 0.37125 6.47375 0.5625 5.6875 C1.22819173 2.91032625 1.22819173 2.91032625 0 0 Z " fill="#38276B" transform="translate(142,134)"/>
<path d="M0 0 C0.99 0.99 1.98 1.98 3 3 C1.35 4.32 -0.3 5.64 -2 7 C-2.125 4.625 -2.125 4.625 -2 2 C-1.34 1.34 -0.68 0.68 0 0 Z " fill="#8160DC" transform="translate(217,132)"/>
<path d="M0 0 C2.9375 1.0625 2.9375 1.0625 6 3 C6.875 6.6875 6.875 6.6875 7 10 C5 8 5 8 3.5 5.4375 C2.23133163 2.89593129 2.23133163 2.89593129 0 2 C0 1.34 0 0.68 0 0 Z " fill="#7757B9" transform="translate(240,213)"/>
<path d="M0 0 C1.485 0.99 1.485 0.99 3 2 C3.375 5 3.375 5 3 8 C2.01 8.66 1.02 9.32 0 10 C0 9.01 0 8.02 0 7 C0.66 7 1.32 7 2 7 C2 6.01 2 5.02 2 4 C1.34 4 0.68 4 0 4 C0 2.68 0 1.36 0 0 Z " fill="#5E42B1" transform="translate(160,184)"/>
<path d="M0 0 C2.31 1.98 4.62 3.96 7 6 C5.68 6.33 4.36 6.66 3 7 C0 2.25 0 2.25 0 0 Z " fill="#745BB8" transform="translate(308,151)"/>
<path d="M0 0 C0.625 1.875 0.625 1.875 1 4 C0.34 4.66 -0.32 5.32 -1 6 C-3.125 5.625 -3.125 5.625 -5 5 C-3.35 3.35 -1.7 1.7 0 0 Z " fill="#7155AE" transform="translate(247,127)"/>
<path d="M0 0 C4.875 2.625 4.875 2.625 6 6 C3.13275314 5.42655063 2.1385485 5.1385485 0 3 C0 2.01 0 1.02 0 0 Z " fill="#7050C7" transform="translate(75,196)"/>
<path d="M0 0 C1.32 0 2.64 0 4 0 C4 0.66 4 1.32 4 2 C4.99 2 5.98 2 7 2 C6.67 2.66 6.34 3.32 6 4 C5.01 3.67 4.02 3.34 3 3 C2.67 3.66 2.34 4.32 2 5 C2 4.01 2 3.02 2 2 C1.01 1.67 0.02 1.34 -1 1 C-0.67 0.67 -0.34 0.34 0 0 Z " fill="#483398" transform="translate(104,123)"/>
</svg>