<svg version="1.1" id="Layer_1" xmlns="http://www.w3.org/2000/svg" xmlns:xlink="http://www.w3.org/1999/xlink" x="0px" y="0px"
	 width="100%" viewBox="0 0 500 500" enable-background="new 0 0 500 500" xml:space="preserve">
<path fill="#000000" opacity="1.000000" stroke="none" 
	d="
M327.000000,501.000000 
	C218.000031,501.000000 109.500053,501.000000 1.000058,501.000000 
	C1.000039,334.333405 1.000039,167.666794 1.000019,1.000148 
	C167.666565,1.000098 334.333130,1.000098 500.999756,1.000049 
	C500.999847,167.666519 500.999847,334.333038 500.999939,500.999786 
	C443.166656,501.000000 385.333344,501.000000 327.000000,501.000000 
M255.592010,213.819672 
	C255.592010,213.819672 255.240372,213.881775 254.576691,213.348312 
	C254.032593,213.192978 253.488480,213.037659 252.423523,212.309006 
	C243.232025,210.027115 233.672821,219.489914 227.343231,229.058685 
	C225.669449,230.424957 223.995667,231.791245 221.747711,233.514374 
	C217.419098,237.634674 213.051117,241.714615 208.773849,245.887543 
	C205.097305,249.474380 204.866425,255.296768 208.365448,259.159668 
	C210.346695,261.346954 212.688477,263.207611 215.094940,265.649384 
	C215.332947,265.905914 215.626816,266.028290 216.135666,266.668365 
	C218.415253,268.793610 220.694839,270.918823 223.095245,273.535706 
	C223.373260,273.698547 223.651291,273.861359 224.068619,274.630890 
	C224.702164,275.105774 225.335709,275.580658 225.998642,276.001526 
	C225.998642,276.001526 225.944855,276.031342 226.109329,276.683655 
	C229.558884,279.955444 233.008423,283.227234 236.686783,286.220612 
	C236.686783,286.220612 236.504425,286.531433 236.702530,287.082886 
	C237.290955,287.561401 237.879364,288.039917 238.485733,288.539490 
	C238.485733,288.539490 238.465530,288.565033 238.955200,289.055389 
	C248.333252,294.871277 256.390472,293.765411 264.419952,285.573029 
	C275.589386,274.176971 286.697632,262.719910 297.954376,251.410751 
	C311.204315,238.099167 324.701538,225.032181 337.856720,211.628693 
	C343.857849,205.514282 343.918457,194.969025 338.046387,188.920822 
	C328.098602,178.674713 317.879517,168.689087 307.655914,158.715485 
	C304.374176,155.514008 299.243469,155.659637 296.017548,158.977585 
	C286.317139,168.954681 276.736664,179.048477 267.123688,189.110367 
	C266.672882,189.582214 266.374359,190.196442 265.980072,190.725861 
	C260.661285,197.867889 261.192383,203.737228 267.160461,210.245102 
	C273.318207,216.959885 279.237915,223.902954 285.027161,230.939178 
	C286.615021,232.869049 287.361694,235.491013 288.494385,237.795395 
	C288.101837,238.037674 287.709320,238.279938 287.316803,238.522217 
	C285.575104,237.315048 283.775421,236.182831 282.101532,234.888016 
	C273.994354,228.616821 265.920990,222.301941 257.682404,215.614563 
	C257.505493,215.364258 257.264038,215.247940 256.963135,215.061172 
	C256.963135,215.061172 256.759644,215.040237 256.699310,214.610962 
	C256.530731,214.321136 256.282349,214.210815 255.843033,214.055237 
	C255.843033,214.055237 255.592285,214.058548 255.592010,213.819672 
M169.657791,179.327255 
	C169.356552,179.483490 169.196014,179.731003 168.566666,180.371750 
	C165.695328,183.376053 162.646637,186.232346 159.989532,189.415466 
	C154.443344,196.059616 154.033356,204.397781 159.848969,210.715714 
	C168.532394,220.149139 177.877792,228.973221 187.088318,238.665726 
	C187.726013,239.103867 188.363708,239.542023 189.247559,240.409073 
	C189.454422,240.676620 189.714172,240.874878 190.268585,241.592209 
	C191.173599,242.051010 192.078629,242.509827 192.989746,243.017242 
	C192.989746,243.017242 193.037796,243.007675 193.195786,243.454865 
	C193.195786,243.454865 193.580551,243.730377 193.580551,243.730377 
	C193.580551,243.730377 194.038773,243.612030 194.869232,243.771210 
	C196.559433,243.762482 198.249634,243.753754 200.652740,243.922668 
	C202.113617,242.973541 203.574509,242.024429 205.053131,241.047592 
	C205.053131,241.047592 205.076691,241.024612 205.676849,240.751205 
	C207.574753,238.361420 209.472656,235.971619 211.508102,233.503342 
	C211.508102,233.503342 211.587570,233.366348 212.047180,233.158676 
	C212.315079,232.750412 212.582977,232.342148 213.277664,231.640244 
	C213.494873,231.373703 213.712097,231.107162 214.521301,230.671906 
	C215.262695,229.734970 216.004105,228.798050 216.844345,227.819504 
	C216.844345,227.819504 216.827759,227.713593 217.380051,227.467300 
	C218.061020,226.524155 218.741974,225.581009 219.589157,224.528961 
	C219.589157,224.528961 219.665970,224.345718 220.186707,224.006119 
	C223.436615,220.239792 226.686508,216.473465 230.348038,212.638214 
	C230.618149,212.489426 230.754761,212.260834 230.865891,211.909988 
	C230.865891,211.909988 230.921005,211.807831 231.501236,211.618896 
	C231.993347,210.722168 232.485443,209.825455 233.548691,208.535202 
	C237.652817,201.910095 237.635117,195.539139 232.270248,189.576950 
	C227.878799,184.696533 223.414917,179.881271 218.651398,174.485413 
	C218.341049,173.924728 218.030685,173.364044 218.328354,172.415131 
	C220.925690,169.151947 223.262970,169.037643 226.407883,172.162323 
	C230.794815,176.521042 235.720703,180.337326 240.503723,184.462143 
	C240.503723,184.462143 240.605423,184.518723 240.990875,185.051224 
	C243.325455,185.912170 245.660034,186.773132 248.662262,187.774094 
	C249.112503,187.733521 249.562759,187.692947 250.746887,187.824661 
	C253.133621,186.811508 256.042145,186.354187 257.816406,184.688614 
	C265.333405,177.632004 272.513458,170.216415 279.938110,162.948624 
	C279.938110,162.948624 279.937958,162.826004 280.461670,162.702072 
	C280.786530,162.282852 281.111389,161.863632 281.261505,161.251114 
	C281.261505,161.251114 281.477386,161.397034 281.905487,161.192734 
	C282.176483,160.995560 282.338318,160.731491 282.347534,160.250214 
	C282.347534,160.250214 282.454926,160.363983 283.037140,160.079575 
	C295.804016,147.534897 295.871704,145.930908 284.093964,134.859192 
	C283.978424,134.750580 283.807190,134.701233 283.572296,134.421112 
	C283.572296,134.421112 283.369415,134.330994 283.067871,133.775848 
	C278.957214,129.732925 274.846588,125.690002 270.647583,121.376991 
	C270.647583,121.376991 270.386688,121.264366 270.105774,120.796219 
	C269.428802,120.200928 268.751831,119.605629 267.852386,118.519295 
	C267.558167,118.324295 267.263977,118.129288 266.713104,117.332634 
	C263.320404,114.448692 260.331299,110.732376 256.452209,108.851585 
	C247.998337,104.752686 241.749832,107.218361 233.672623,116.627014 
	C233.672623,116.627014 233.588242,116.621651 233.136581,116.798897 
	C232.852631,116.991249 232.678619,117.255890 232.828522,117.862373 
	C232.828522,117.862373 232.579575,117.624725 232.134109,117.809654 
	C231.852417,118.001694 231.680267,118.265282 231.847366,118.890411 
	C231.847366,118.890411 231.585556,118.629036 231.133865,118.829124 
	C230.852570,119.038658 230.691711,119.317642 230.981674,119.859802 
	C230.981674,119.859802 230.670425,119.636490 230.151917,119.810562 
	C229.830368,120.227554 229.508820,120.644547 229.053207,121.060616 
	C229.053207,121.060616 229.067444,121.193916 228.488251,121.415154 
	C227.357269,122.609810 226.226288,123.804466 225.002563,124.982605 
	C225.002563,124.982605 224.983246,125.074806 224.359100,125.259193 
	C222.581375,127.155708 220.803650,129.052216 218.956268,130.954849 
	C218.956268,130.954849 218.948532,131.024353 218.365555,131.149216 
	C217.920670,131.755188 217.475800,132.361176 216.970764,132.973419 
	C216.970764,132.973419 216.970184,133.033890 216.349869,133.195435 
	C215.239944,134.454208 214.130035,135.712982 212.977386,136.975021 
	C212.977386,136.975021 212.970764,137.017349 212.380661,137.137161 
	C211.923141,137.742386 211.465637,138.347626 210.957520,138.959915 
	C210.957520,138.959915 210.948334,139.010178 210.478638,139.136673 
	C210.176132,139.324432 210.021500,139.596313 209.540588,140.166824 
	C209.346130,140.447174 209.151688,140.727539 208.340042,141.243057 
	C206.758820,143.038101 205.177597,144.833145 203.853470,146.916016 
	C203.853470,146.916016 203.630997,146.600662 203.048264,146.894699 
	C201.101852,149.271194 199.155457,151.647690 196.506470,154.123520 
	C193.077484,157.115479 189.648483,160.107422 186.122421,163.102386 
	C186.122421,163.102386 186.076553,163.188004 185.613571,163.277161 
	C185.308823,163.458847 185.174347,163.726212 185.121735,164.141708 
	C185.121735,164.141708 185.097794,164.247253 184.684662,164.379196 
	C184.423615,164.543610 184.266159,164.777710 183.671860,165.338104 
	C183.241486,165.949905 182.811111,166.561707 181.875931,167.482666 
	C181.618210,167.777451 181.360504,168.072235 180.678375,168.395538 
	C180.389450,168.552490 180.274063,168.792831 180.169250,169.156281 
	C180.169250,169.156281 180.107544,169.312256 179.658005,169.345459 
	C179.352203,169.512283 179.230103,169.767151 179.146484,170.147415 
	C179.146484,170.147415 179.113052,170.293594 178.665314,170.342957 
	C178.362778,170.513428 178.243011,170.769424 178.154190,171.164673 
	C178.154190,171.164673 178.117126,171.321396 177.686050,171.375809 
	C177.396896,171.540207 177.278336,171.786713 177.168823,172.166733 
	C177.168823,172.166733 177.114777,172.327408 176.677460,172.373291 
	C176.385132,172.528427 176.247406,172.771286 176.130920,173.124161 
	C176.130920,173.124161 176.097870,173.255249 175.655151,173.329285 
	C175.362137,173.499756 175.233582,173.753586 174.787033,174.360001 
	C174.562134,174.647354 174.337234,174.934708 173.634918,175.310532 
	C173.319427,175.497498 173.182358,175.773193 173.119141,176.155243 
	C173.119141,176.155243 173.117844,176.261276 172.672546,176.350967 
	C172.381683,176.523087 172.243515,176.777985 172.138855,177.125000 
	C172.138855,177.125000 172.105026,177.239639 171.634277,177.299911 
	C171.318588,177.480560 171.190247,177.750351 171.129440,178.135025 
	C171.129440,178.135025 171.112946,178.256470 170.652496,178.320435 
	C170.344208,178.497406 170.217606,178.761520 170.143600,179.146454 
	C170.143600,179.146454 170.115341,179.276825 169.657791,179.327255 
M92.729218,363.847839 
	C97.936264,365.008972 103.179375,367.203064 108.339600,367.022949 
	C112.937210,366.862457 117.283371,364.832977 120.011574,370.499817 
	C122.168732,368.978210 123.756027,367.858582 125.341942,366.739899 
	C121.560356,361.340393 121.560356,361.340393 124.085197,355.405579 
	C128.053329,346.078217 125.696060,336.376801 117.876930,329.855255 
	C111.844078,324.823547 100.192955,324.332397 93.033333,329.038757 
	C82.379585,336.041992 79.520233,353.382629 92.729218,363.847839 
M261.465393,339.077271 
	C261.465393,347.642670 261.465393,356.208099 261.465393,364.893127 
	C267.588806,364.893127 272.412659,364.993744 277.230713,364.869934 
	C284.740997,364.676941 290.146881,360.591827 292.413818,353.604767 
	C294.959839,345.757599 292.812134,337.752289 286.931366,333.350128 
	C280.742126,328.717072 273.503906,329.346802 266.375153,329.162048 
	C262.941681,329.073059 261.478180,330.464661 261.434601,333.715454 
	C261.414490,335.214539 261.428162,336.714111 261.465393,339.077271 
M181.281296,356.383179 
	C181.281296,347.505646 181.281296,338.628113 181.281296,329.738098 
	C175.173035,328.782806 174.932083,328.968536 174.925400,334.730713 
	C174.919022,340.225830 175.022324,345.723724 174.880859,351.215302 
	C174.741714,356.616394 172.025040,359.143677 166.798523,359.085297 
	C161.417557,359.025208 158.774673,356.312317 158.596283,350.068115 
	C158.430084,344.250671 158.820755,338.414124 158.548248,332.605591 
	C158.493423,331.436798 156.448547,329.361115 155.519791,329.465790 
	C154.092300,329.626648 151.716278,331.285522 151.689758,332.356995 
	C151.515259,339.407074 151.522797,346.499634 152.133743,353.520660 
	C152.771393,360.848633 157.240051,364.731506 164.924286,365.692505 
	C172.860062,366.684967 178.058594,363.911469 181.281296,356.383179 
M231.716888,346.564301 
	C229.845840,341.790283 228.236938,336.885254 225.953339,332.317474 
	C225.212143,330.834900 222.722397,329.500610 221.000763,329.460510 
	C219.587021,329.427612 217.414932,331.111206 216.803970,332.553009 
	C213.310287,340.797791 210.164536,349.190735 206.943405,357.549835 
	C206.082169,359.784851 205.370651,362.077606 204.590393,364.343842 
	C204.931503,364.823395 205.272629,365.302948 205.613739,365.782501 
	C207.835663,364.741608 211.575150,364.117767 211.997208,362.582184 
	C213.304794,357.824554 216.162003,357.363403 220.142029,357.697083 
	C222.932648,357.931030 225.758713,357.742249 228.424362,357.742249 
	C232.139526,365.746521 232.139526,365.746521 238.317520,364.016327 
	C236.176544,358.427277 234.048691,352.872467 231.716888,346.564301 
M397.281891,332.371002 
	C399.931458,336.388245 402.495605,340.465637 405.265381,344.398193 
	C406.725769,346.471680 406.346893,347.973907 404.945435,349.936218 
	C401.646454,354.555298 398.639984,359.383240 395.350220,364.377106 
	C406.698608,367.400208 405.990906,356.163635 411.666504,352.609131 
	C413.331757,355.165985 415.367706,357.616943 416.650848,360.413300 
	C418.814850,365.129364 422.224121,365.780029 427.257080,364.381714 
	C424.600250,360.241608 422.544495,356.020294 419.548645,352.629578 
	C415.876465,348.473419 416.157959,345.059296 419.346436,340.943146 
	C421.908051,337.636261 423.943085,333.921417 426.218964,330.376373 
	C415.692780,326.468597 416.394043,337.269714 410.915710,340.531647 
	C409.110596,337.734711 407.508667,334.353058 405.053131,331.788788 
	C403.605103,330.276703 400.832062,329.948914 398.580505,329.386200 
	C398.259247,329.305908 397.517029,330.909912 397.281891,332.371002 
M336.287659,358.972107 
	C334.124664,358.977966 331.950745,358.847443 329.801147,359.020050 
	C326.139435,359.314056 324.988281,357.946350 325.152374,354.159363 
	C325.496948,346.206329 325.256989,338.227936 325.256989,330.424316 
	C318.761414,328.196899 318.096161,328.625977 318.078491,334.619385 
	C318.066254,338.779205 318.065674,342.939087 318.064087,347.098938 
	C318.061859,353.006470 318.063507,358.914032 318.063507,364.678223 
	C325.934326,364.678223 333.031982,364.678223 340.343964,364.678223 
	C340.741394,361.717438 342.293549,358.555695 336.287659,358.972107 
M365.048584,339.563721 
	C365.048584,347.953796 365.048584,356.343872 365.048584,364.742767 
	C367.634033,364.742767 369.563080,364.742767 371.730499,364.742767 
	C371.730499,353.167175 371.730499,341.785736 371.730499,330.387848 
	C365.978241,328.165558 365.085724,328.724792 365.058746,334.610535 
	C365.052673,335.936005 365.052399,337.261444 365.048584,339.563721 
z"/>
<path fill="#8662E6" opacity="1.000000" stroke="none" 
	d="
M257.835632,216.002563 
	C265.920990,222.301941 273.994354,228.616821 282.101532,234.888016 
	C283.775421,236.182831 285.575104,237.315048 287.316803,238.522217 
	C287.709320,238.279938 288.101837,238.037674 288.494385,237.795395 
	C287.361694,235.491013 286.615021,232.869049 285.027161,230.939178 
	C279.237915,223.902954 273.318207,216.959885 267.160461,210.245102 
	C261.192383,203.737228 260.661285,197.867889 265.980072,190.725861 
	C266.374359,190.196442 266.672882,189.582214 267.123688,189.110367 
	C276.736664,179.048477 286.317139,168.954681 296.017548,158.977585 
	C299.243469,155.659637 304.374176,155.514008 307.655914,158.715485 
	C317.879517,168.689087 328.098602,178.674713 338.046387,188.920822 
	C343.918457,194.969025 343.857849,205.514282 337.856720,211.628693 
	C324.701538,225.032181 311.204315,238.099167 297.954376,251.410751 
	C286.697632,262.719910 275.589386,274.176971 264.419952,285.573029 
	C256.390472,293.765411 248.333252,294.871277 239.114410,288.676147 
	C240.838913,288.692902 242.498093,288.876831 243.953339,289.521271 
	C250.436081,292.392059 253.546204,291.147614 259.033051,286.613312 
	C262.259583,283.946930 265.462463,282.262817 264.783813,277.462494 
	C264.693390,276.823029 265.357025,275.879395 265.933167,275.376434 
	C268.933563,272.757294 272.053925,270.275085 275.035797,267.635925 
	C275.477966,267.244598 275.405670,266.271973 275.782471,264.672241 
	C273.682251,266.070190 272.368896,266.944366 271.356262,267.618408 
	C268.702698,266.305664 266.484100,264.695770 264.021576,264.107971 
	C260.165009,263.187347 259.163177,260.894775 258.931641,257.309570 
	C258.544495,251.315689 257.520935,245.362854 257.135803,239.368927 
	C256.768433,233.651398 257.202454,227.868942 256.605011,222.186447 
	C256.377411,220.021698 254.260086,218.055618 253.003403,215.680573 
	C253.014999,214.725006 253.027206,214.087830 253.085632,213.296875 
	C253.131882,213.143097 252.944382,212.882339 252.944382,212.882339 
	C253.488480,213.037659 254.032593,213.192978 254.957306,213.659821 
	C255.337936,213.971329 255.592285,214.058548 255.592285,214.058548 
	C255.592285,214.058548 255.843033,214.055237 255.995331,214.330597 
	C256.310089,214.809280 256.514099,214.954041 256.759644,215.040237 
	C256.759644,215.040237 256.963135,215.061172 257.064636,215.331268 
	C257.346039,215.807251 257.569214,215.940979 257.835632,216.002563 
z"/>
<path fill="#8864E7" opacity="1.000000" stroke="none" 
	d="
M250.013000,187.652359 
	C249.562759,187.692947 249.112503,187.733521 248.236542,187.385834 
	C245.409027,186.171310 243.007233,185.345016 240.605423,184.518723 
	C240.605423,184.518723 240.503723,184.462143 240.576385,184.083832 
	C237.107101,180.163345 233.541168,176.644760 230.029984,173.072342 
	C226.557495,169.539276 223.089157,166.359039 217.639343,169.568649 
	C216.592499,170.185181 215.066895,169.988785 213.494904,169.999298 
	C212.177399,168.830353 211.127151,167.829544 210.047699,166.484482 
	C209.275833,165.470718 208.533157,164.801224 207.553452,163.909683 
	C205.178391,161.180313 203.040359,158.673004 200.937286,155.751221 
	C201.858490,152.424713 202.744736,149.512695 203.630997,146.600662 
	C203.630997,146.600662 203.853470,146.916016 204.086685,146.765259 
	C205.865677,144.745636 207.411453,142.876770 208.957230,141.007889 
	C209.151688,140.727539 209.346130,140.447174 209.989166,139.965820 
	C210.702805,139.577454 210.873001,139.325912 210.948334,139.010178 
	C210.948334,139.010178 210.957520,138.959915 211.292694,138.920563 
	C212.075500,138.259918 212.523132,137.638641 212.970764,137.017349 
	C212.970764,137.017349 212.977386,136.975021 213.335556,136.943344 
	C214.785889,135.619080 215.878036,134.326492 216.970184,133.033890 
	C216.970184,133.033890 216.970764,132.973419 217.308731,132.930893 
	C218.080643,132.267029 218.514587,131.645691 218.948532,131.024353 
	C218.948532,131.024353 218.956268,130.954849 219.350708,130.954834 
	C221.491165,128.994812 223.237213,127.034805 224.983246,125.074806 
	C224.983246,125.074806 225.002563,124.982605 225.405975,124.992630 
	C226.895416,123.733078 227.981430,122.463493 229.067444,121.193909 
	C229.067444,121.193916 229.053207,121.060616 229.407944,121.009895 
	C230.065262,120.518280 230.367844,120.077385 230.670425,119.636490 
	C230.670425,119.636490 230.981674,119.859802 231.094269,119.729729 
	C231.333099,119.276115 231.459335,118.952576 231.585556,118.629036 
	C231.585556,118.629036 231.847366,118.890411 232.013306,118.735893 
	C232.312698,118.262489 232.446136,117.943604 232.579559,117.624725 
	C232.579575,117.624725 232.828522,117.862373 233.002106,117.718369 
	C233.313217,117.256798 233.450729,116.939224 233.588242,116.621651 
	C233.588242,116.621651 233.672623,116.627014 234.018051,116.685135 
	C235.828369,115.754913 237.370377,114.862946 238.745575,113.762512 
	C247.331482,106.891960 253.566788,107.268829 261.609894,114.928864 
	C263.047089,116.297592 265.165741,116.950737 266.969757,117.934280 
	C267.263977,118.129288 267.558167,118.324295 267.962952,119.129364 
	C268.844543,120.247742 269.615631,120.756058 270.386688,121.264366 
	C270.386688,121.264366 270.647583,121.376991 270.533783,121.838837 
	C273.229645,125.624260 275.908447,129.073746 278.919342,132.203751 
	C279.986511,133.313156 281.862610,133.644455 283.369415,134.330994 
	C283.369415,134.330994 283.572296,134.421112 283.471558,134.860977 
	C284.220490,136.647568 284.872406,138.183792 285.952057,139.310013 
	C292.621643,146.267334 292.578461,147.838409 285.888214,154.791351 
	C284.409943,156.327652 283.582214,158.489929 282.454926,160.363983 
	C282.454926,160.363983 282.347534,160.250214 282.090454,160.341263 
	C281.714691,160.753891 281.596039,161.075455 281.477386,161.397034 
	C281.477386,161.397034 281.261505,161.251114 281.051880,161.336151 
	C280.540863,161.889465 280.239410,162.357742 279.937958,162.826019 
	C279.937958,162.826004 279.938110,162.948624 279.527893,162.960327 
	C278.102753,163.485504 276.918640,163.809555 276.098877,164.541626 
	C267.434052,172.279724 260.757904,182.257080 250.013000,187.652359 
z"/>
<path fill="#7955DD" opacity="1.000000" stroke="none" 
	d="
M213.929291,230.840607 
	C213.712097,231.107162 213.494873,231.373703 212.783112,231.832748 
	C212.054901,232.472290 211.821228,232.919312 211.587570,233.366348 
	C211.587570,233.366348 211.508102,233.503342 211.101318,233.511597 
	C208.821930,236.021439 206.949310,238.523026 205.076691,241.024612 
	C205.076691,241.024612 205.053131,241.047592 204.703796,241.107437 
	C202.882935,242.026535 201.411392,242.885788 199.939835,243.745026 
	C198.249634,243.753754 196.559433,243.762482 194.341995,243.515488 
	C193.592743,243.061813 193.333755,242.977783 193.037796,243.007675 
	C193.037796,243.007675 192.989746,243.017242 192.917969,242.669830 
	C191.906387,241.882904 190.966583,241.443375 190.026794,241.003845 
	C189.714172,240.874878 189.454422,240.676620 189.074509,239.881775 
	C188.248154,238.921844 187.594864,238.489197 186.941574,238.056549 
	C177.877792,228.973221 168.532394,220.149139 159.848969,210.715714 
	C154.033356,204.397781 154.443344,196.059616 159.989532,189.415466 
	C162.646637,186.232346 165.695328,183.376053 169.086533,180.170563 
	C169.889038,179.821564 170.058685,179.590714 170.115341,179.276825 
	C170.115341,179.276825 170.143600,179.146454 170.410614,179.058578 
	C170.934311,178.800644 171.079422,178.562561 171.112946,178.256470 
	C171.112946,178.256470 171.129440,178.135025 171.393555,178.048187 
	C171.912521,177.786316 172.061646,177.545731 172.105026,177.239639 
	C172.105026,177.239639 172.138855,177.125000 172.405823,177.053894 
	C172.936630,176.813522 173.084991,176.573013 173.117844,176.261276 
	C173.117844,176.261276 173.119141,176.155243 173.366455,176.191483 
	C173.613754,176.227722 174.005981,176.307953 174.249390,176.519257 
	C180.562775,183.219269 186.577271,189.761444 192.743301,196.157501 
	C194.208511,197.677383 196.104904,198.834152 197.934601,199.940186 
	C203.449646,203.274063 209.245224,206.193863 214.500488,209.888107 
	C217.492081,211.991074 219.642227,215.291016 222.140533,218.422729 
	C221.295197,220.644241 220.480576,222.494980 219.665955,224.345718 
	C219.665970,224.345718 219.589157,224.528961 219.180145,224.548859 
	C218.123337,225.617035 217.475555,226.665314 216.827759,227.713593 
	C216.827759,227.713593 216.844345,227.819504 216.492157,227.920395 
	C215.403076,228.961060 214.666183,229.900833 213.929291,230.840607 
z"/>
<path fill="#835EE6" opacity="1.000000" stroke="none" 
	d="
M253.003998,215.998993 
	C254.260086,218.055618 256.377411,220.021698 256.605011,222.186447 
	C257.202454,227.868942 256.768433,233.651398 257.135803,239.368927 
	C257.520935,245.362854 258.544495,251.315689 258.931641,257.309570 
	C259.163177,260.894775 260.165009,263.187347 264.021576,264.107971 
	C266.484100,264.695770 268.702698,266.305664 271.356262,267.618408 
	C272.368896,266.944366 273.682251,266.070190 275.782471,264.672241 
	C275.405670,266.271973 275.477966,267.244598 275.035797,267.635925 
	C272.053925,270.275085 268.933563,272.757294 265.933167,275.376434 
	C265.357025,275.879395 264.693390,276.823029 264.783813,277.462494 
	C265.462463,282.262817 262.259583,283.946930 259.033051,286.613312 
	C253.546204,291.147614 250.436081,292.392059 243.953339,289.521271 
	C242.498093,288.876831 240.838913,288.692902 238.869568,288.430969 
	C238.465530,288.565033 238.485733,288.539490 238.593292,288.143372 
	C237.968704,287.341980 237.236557,286.936707 236.504425,286.531433 
	C236.504425,286.531433 236.686783,286.220612 236.706604,285.990265 
	C234.102081,281.442596 231.327286,277.292023 225.944855,276.031342 
	C225.944855,276.031342 225.998642,276.001526 225.941162,275.702972 
	C225.232224,274.944336 224.580765,274.484283 223.929306,274.024200 
	C223.651291,273.861359 223.373260,273.698547 223.161469,272.991089 
	C222.919861,267.924591 218.669601,267.848572 215.976547,266.016479 
	C215.626816,266.028290 215.332947,265.905914 215.104874,265.139099 
	C214.413971,262.795837 213.713135,260.962860 212.775146,258.509613 
	C213.760468,256.519287 215.064636,253.829315 216.418945,251.164810 
	C217.789139,248.469040 220.522781,246.007874 217.583603,242.655869 
	C217.325912,242.362000 217.895493,240.701813 218.225128,240.653122 
	C219.247192,240.502182 220.527496,240.512802 221.365646,241.022751 
	C223.314041,242.208145 224.888596,244.107162 226.926132,245.027084 
	C231.821808,247.237473 236.896591,249.051178 242.086563,251.308533 
	C243.392853,253.476440 244.511688,255.360733 245.630524,257.245026 
	C246.257355,256.717499 246.884171,256.189972 247.511002,255.662415 
	C247.726013,254.783936 247.941025,253.905441 248.523636,252.903778 
	C249.474106,248.320145 250.294998,243.874664 250.576691,239.395264 
	C250.895279,234.329422 250.489868,229.215057 250.870346,224.157242 
	C251.077774,221.399933 252.260895,218.716019 253.003998,215.998993 
z"/>
<path fill="#ECEBEC" opacity="1.000000" stroke="none" 
	d="
M92.450470,363.617188 
	C79.520233,353.382629 82.379585,336.041992 93.033333,329.038757 
	C100.192955,324.332397 111.844078,324.823547 117.876930,329.855255 
	C125.696060,336.376801 128.053329,346.078217 124.085197,355.405579 
	C121.560356,361.340393 121.560356,361.340393 125.341942,366.739899 
	C123.756027,367.858582 122.168732,368.978210 120.011574,370.499817 
	C117.283371,364.832977 112.937210,366.862457 108.339600,367.022949 
	C103.179375,367.203064 97.936264,365.008972 92.450470,363.617188 
M107.110443,332.952484 
	C100.566574,332.021637 95.807549,334.449310 92.875076,340.431335 
	C90.378777,345.523560 91.175240,351.882904 95.170456,356.194794 
	C99.066376,360.399536 103.711136,362.114441 109.887291,359.624939 
	C108.034126,357.288971 106.384918,355.210083 104.615692,352.979919 
	C106.696686,351.497467 108.278076,350.370911 109.754425,349.319183 
	C111.705544,351.167267 113.445374,352.815186 115.186234,354.464111 
	C121.795265,347.155975 118.063675,336.467499 107.110443,332.952484 
z"/>
<path fill="#724ED5" opacity="1.000000" stroke="none" 
	d="
M222.171265,218.051956 
	C219.642227,215.291016 217.492081,211.991074 214.500488,209.888107 
	C209.245224,206.193863 203.449646,203.274063 197.934601,199.940186 
	C196.104904,198.834152 194.208511,197.677383 192.743301,196.157501 
	C186.577271,189.761444 180.562775,183.219269 174.296738,176.248734 
	C174.104538,175.585281 174.108429,175.403671 174.112335,175.222061 
	C174.337234,174.934708 174.562134,174.647354 175.222061,174.150391 
	C175.898422,173.772995 176.045349,173.544479 176.097870,173.255249 
	C176.097870,173.255249 176.130920,173.124161 176.389709,173.047638 
	C176.895370,172.822815 177.050812,172.608246 177.114777,172.327408 
	C177.114777,172.327408 177.168823,172.166733 177.433044,172.068573 
	C177.928589,171.813171 178.068542,171.596832 178.117126,171.321396 
	C178.117126,171.321396 178.154190,171.164673 178.417130,171.061127 
	C178.915619,170.795731 179.059952,170.574402 179.113052,170.293594 
	C179.113052,170.293594 179.146484,170.147415 179.407196,170.057205 
	C179.905930,169.810181 180.052475,169.591934 180.107544,169.312256 
	C180.107544,169.312256 180.169250,169.156281 180.430038,169.072266 
	C180.919067,168.841446 181.056381,168.634369 181.102798,168.367020 
	C181.360504,168.072235 181.618210,167.777451 182.449463,167.380005 
	C187.377396,170.758377 192.715775,173.523117 195.880463,177.870270 
	C202.379532,186.797699 211.207962,192.755035 219.573105,199.442886 
	C228.132126,206.285706 231.071396,212.159485 222.171265,218.051956 
z"/>
<path fill="#ECEBEC" opacity="1.000000" stroke="none" 
	d="
M261.445953,338.645355 
	C261.428162,336.714111 261.414490,335.214539 261.434601,333.715454 
	C261.478180,330.464661 262.941681,329.073059 266.375153,329.162048 
	C273.503906,329.346802 280.742126,328.717072 286.931366,333.350128 
	C292.812134,337.752289 294.959839,345.757599 292.413818,353.604767 
	C290.146881,360.591827 284.740997,364.676941 277.230713,364.869934 
	C272.412659,364.993744 267.588806,364.893127 261.465393,364.893127 
	C261.465393,356.208099 261.465393,347.642670 261.445953,338.645355 
M286.032806,344.122101 
	C282.919556,336.566223 279.094696,334.877350 269.108002,336.718292 
	C269.108002,343.871704 269.108002,351.039703 269.108002,358.115906 
	C282.240723,360.384186 287.472198,353.807526 286.032806,344.122101 
z"/>
<path fill="#ECEBEC" opacity="1.000000" stroke="none" 
	d="
M181.118835,356.761169 
	C178.058594,363.911469 172.860062,366.684967 164.924286,365.692505 
	C157.240051,364.731506 152.771393,360.848633 152.133743,353.520660 
	C151.522797,346.499634 151.515259,339.407074 151.689758,332.356995 
	C151.716278,331.285522 154.092300,329.626648 155.519791,329.465790 
	C156.448547,329.361115 158.493423,331.436798 158.548248,332.605591 
	C158.820755,338.414124 158.430084,344.250671 158.596283,350.068115 
	C158.774673,356.312317 161.417557,359.025208 166.798523,359.085297 
	C172.025040,359.143677 174.741714,356.616394 174.880859,351.215302 
	C175.022324,345.723724 174.919022,340.225830 174.925400,334.730713 
	C174.932083,328.968536 175.173035,328.782806 181.281296,329.738098 
	C181.281296,338.628113 181.281296,347.505646 181.118835,356.761169 
z"/>
<path fill="#ECEBEC" opacity="1.000000" stroke="none" 
	d="
M231.818878,346.940979 
	C234.048691,352.872467 236.176544,358.427277 238.317520,364.016327 
	C232.139526,365.746521 232.139526,365.746521 228.424362,357.742249 
	C225.758713,357.742249 222.932648,357.931030 220.142029,357.697083 
	C216.162003,357.363403 213.304794,357.824554 211.997208,362.582184 
	C211.575150,364.117767 207.835663,364.741608 205.613739,365.782501 
	C205.272629,365.302948 204.931503,364.823395 204.590393,364.343842 
	C205.370651,362.077606 206.082169,359.784851 206.943405,357.549835 
	C210.164536,349.190735 213.310287,340.797791 216.803970,332.553009 
	C217.414932,331.111206 219.587021,329.427612 221.000763,329.460510 
	C222.722397,329.500610 225.212143,330.834900 225.953339,332.317474 
	C228.236938,336.885254 229.845840,341.790283 231.818878,346.940979 
M217.705048,348.938477 
	C219.370712,353.893311 222.914612,350.105011 226.273666,351.367828 
	C224.584610,346.709564 223.221634,342.950623 221.371857,337.849152 
	C219.859146,342.147369 218.821823,345.094818 217.705048,348.938477 
z"/>
<path fill="#342674" opacity="1.000000" stroke="none" 
	d="
M210.076904,166.828735 
	C211.127151,167.829544 212.177399,168.830353 213.651947,170.287415 
	C215.290955,171.430222 216.505646,172.116791 217.720337,172.803360 
	C218.030685,173.364044 218.341049,173.924728 218.819580,175.181229 
	C219.208847,187.059006 224.300720,195.993210 231.655457,204.004700 
	C232.674683,205.114960 232.564758,207.261780 232.977539,208.928741 
	C232.485443,209.825455 231.993347,210.722168 231.220749,211.339920 
	C230.306473,209.220856 230.135803,206.982239 228.956375,205.611725 
	C224.550369,200.491898 219.826874,195.644272 215.198547,190.717010 
	C207.125259,182.122284 199.091034,173.489136 190.881729,165.026047 
	C189.807373,163.918488 187.796570,163.719299 186.219498,163.099380 
	C189.648483,160.107422 193.077484,157.115479 197.145447,154.185349 
	C198.823715,154.886673 199.863022,155.526184 200.902328,156.165680 
	C203.040359,158.673004 205.178391,161.180313 207.632416,164.209015 
	C208.657913,165.429825 209.367416,166.129288 210.076904,166.828735 
z"/>
<path fill="#ECEBEC" opacity="1.000000" stroke="none" 
	d="
M397.125793,332.052704 
	C397.517029,330.909912 398.259247,329.305908 398.580505,329.386200 
	C400.832062,329.948914 403.605103,330.276703 405.053131,331.788788 
	C407.508667,334.353058 409.110596,337.734711 410.915710,340.531647 
	C416.394043,337.269714 415.692780,326.468597 426.218964,330.376373 
	C423.943085,333.921417 421.908051,337.636261 419.346436,340.943146 
	C416.157959,345.059296 415.876465,348.473419 419.548645,352.629578 
	C422.544495,356.020294 424.600250,360.241608 427.257080,364.381714 
	C422.224121,365.780029 418.814850,365.129364 416.650848,360.413300 
	C415.367706,357.616943 413.331757,355.165985 411.666504,352.609131 
	C405.990906,356.163635 406.698608,367.400208 395.350220,364.377106 
	C398.639984,359.383240 401.646454,354.555298 404.945435,349.936218 
	C406.346893,347.973907 406.725769,346.471680 405.265381,344.398193 
	C402.495605,340.465637 399.931458,336.388245 397.125793,332.052704 
z"/>
<path fill="#1B1443" opacity="1.000000" stroke="none" 
	d="
M227.995987,228.885498 
	C233.672821,219.489914 243.232025,210.027115 252.683960,212.595673 
	C252.944382,212.882339 253.131882,213.143097 252.745483,213.152893 
	C250.915009,217.450180 249.470901,221.737701 247.833511,226.183182 
	C247.713989,226.927948 247.787766,227.514771 247.841583,228.563293 
	C247.805405,235.945114 247.789185,242.865250 247.442444,249.813324 
	C244.441803,247.858322 241.771652,245.875351 238.979553,243.716797 
	C238.857590,243.541214 238.571823,243.223190 238.635529,242.870239 
	C235.131485,237.973343 231.563736,233.429413 227.995987,228.885498 
z"/>
<path fill="#ECEBEC" opacity="1.000000" stroke="none" 
	d="
M336.747559,358.972900 
	C342.293549,358.555695 340.741394,361.717438 340.343964,364.678223 
	C333.031982,364.678223 325.934326,364.678223 318.063507,364.678223 
	C318.063507,358.914032 318.061859,353.006470 318.064087,347.098938 
	C318.065674,342.939087 318.066254,338.779205 318.078491,334.619385 
	C318.096161,328.625977 318.761414,328.196899 325.256989,330.424316 
	C325.256989,338.227936 325.496948,346.206329 325.152374,354.159363 
	C324.988281,357.946350 326.139435,359.314056 329.801147,359.020050 
	C331.950745,358.847443 334.124664,358.977966 336.747559,358.972900 
z"/>
<path fill="#7955DD" opacity="1.000000" stroke="none" 
	d="
M238.571823,243.223190 
	C238.571823,243.223190 238.857590,243.541214 238.969925,244.078613 
	C240.021210,246.752335 240.960159,248.888641 241.899109,251.024933 
	C236.896591,249.051178 231.821808,247.237473 226.926132,245.027084 
	C224.888596,244.107162 223.314041,242.208145 221.365646,241.022751 
	C220.527496,240.512802 219.247192,240.502182 218.225128,240.653122 
	C217.895493,240.701813 217.325912,242.362000 217.583603,242.655869 
	C220.522781,246.007874 217.789139,248.469040 216.418945,251.164810 
	C215.064636,253.829315 213.760468,256.519287 212.775146,258.509613 
	C213.713135,260.962860 214.413971,262.795837 214.991333,264.922119 
	C212.688477,263.207611 210.346695,261.346954 208.365448,259.159668 
	C204.866425,255.296768 205.097305,249.474380 208.773849,245.887543 
	C213.051117,241.714615 217.419098,237.634674 222.378326,233.319214 
	C224.260651,233.802231 225.573502,234.388763 226.752975,235.175293 
	C230.718185,237.819534 234.635910,240.534988 238.571823,243.223190 
z"/>
<path fill="#4F37A2" opacity="1.000000" stroke="none" 
	d="
M186.170959,163.100891 
	C187.796570,163.719299 189.807373,163.918488 190.881729,165.026047 
	C199.091034,173.489136 207.125259,182.122284 215.198547,190.717010 
	C219.826874,195.644272 224.550369,200.491898 228.956375,205.611725 
	C230.135803,206.982239 230.306473,209.220856 230.930634,211.434387 
	C230.921005,211.807831 230.865891,211.909988 230.633850,212.003723 
	C230.184540,212.253235 230.029404,212.456467 229.936401,212.707153 
	C226.686508,216.473465 223.436615,220.239792 219.926331,224.175919 
	C220.480576,222.494980 221.295197,220.644241 222.140533,218.422729 
	C231.071396,212.159485 228.132126,206.285706 219.573105,199.442886 
	C211.207962,192.755035 202.379532,186.797699 195.880463,177.870270 
	C192.715775,173.523117 187.377396,170.758377 182.701859,167.225418 
	C182.811111,166.561707 183.241486,165.949905 184.135040,165.125153 
	C184.842590,164.749023 185.009109,164.527374 185.097794,164.247253 
	C185.097794,164.247253 185.121735,164.141708 185.349365,164.003723 
	C185.807251,163.686829 185.973770,163.460907 186.076553,163.188004 
	C186.076553,163.188004 186.122421,163.102386 186.170959,163.100891 
z"/>
<path fill="#ECEBEC" opacity="1.000000" stroke="none" 
	d="
M365.049011,339.075317 
	C365.052399,337.261444 365.052673,335.936005 365.058746,334.610535 
	C365.085724,328.724792 365.978241,328.165558 371.730499,330.387848 
	C371.730499,341.785736 371.730499,353.167175 371.730499,364.742767 
	C369.563080,364.742767 367.634033,364.742767 365.048584,364.742767 
	C365.048584,356.343872 365.048584,347.953796 365.049011,339.075317 
z"/>
<path fill="#281F59" opacity="1.000000" stroke="none" 
	d="
M233.263123,208.731964 
	C232.564758,207.261780 232.674683,205.114960 231.655457,204.004700 
	C224.300720,195.993210 219.208847,187.059006 218.985458,175.457092 
	C223.414917,179.881271 227.878799,184.696533 232.270248,189.576950 
	C237.635117,195.539139 237.652817,201.910095 233.263123,208.731964 
z"/>
<path fill="#724ED5" opacity="1.000000" stroke="none" 
	d="
M266.841431,117.633461 
	C265.165741,116.950737 263.047089,116.297592 261.609894,114.928864 
	C253.566788,107.268829 247.331482,106.891960 238.745575,113.762512 
	C237.370377,114.862946 235.828369,115.754913 234.002045,116.646011 
	C241.749832,107.218361 247.998337,104.752686 256.452209,108.851585 
	C260.331299,110.732376 263.320404,114.448692 266.841431,117.633461 
z"/>
<path fill="#724ED5" opacity="1.000000" stroke="none" 
	d="
M250.379944,187.738510 
	C260.757904,182.257080 267.434052,172.279724 276.098877,164.541626 
	C276.918640,163.809555 278.102753,163.485504 279.467163,162.952026 
	C272.513458,170.216415 265.333405,177.632004 257.816406,184.688614 
	C256.042145,186.354187 253.133621,186.811508 250.379944,187.738510 
z"/>
<path fill="#4F37A2" opacity="1.000000" stroke="none" 
	d="
M238.635529,242.870239 
	C234.635910,240.534988 230.718185,237.819534 226.752975,235.175293 
	C225.573502,234.388763 224.260651,233.802231 222.665405,233.140793 
	C223.995667,231.791245 225.669449,230.424957 227.669617,228.972092 
	C231.563736,233.429413 235.131485,237.973343 238.635529,242.870239 
z"/>
<path fill="#724ED5" opacity="1.000000" stroke="none" 
	d="
M218.024353,172.609253 
	C216.505646,172.116791 215.290955,171.430222 213.919205,170.455536 
	C215.066895,169.988785 216.592499,170.185181 217.639343,169.568649 
	C223.089157,166.359039 226.557495,169.539276 230.029984,173.072342 
	C233.541168,176.644760 237.107101,180.163345 240.532501,184.045624 
	C235.720703,180.337326 230.794815,176.521042 226.407883,172.162323 
	C223.262970,169.037643 220.925690,169.151947 218.024353,172.609253 
z"/>
<path fill="#724ED5" opacity="1.000000" stroke="none" 
	d="
M282.746033,160.221771 
	C283.582214,158.489929 284.409943,156.327652 285.888214,154.791351 
	C292.578461,147.838409 292.621643,146.267334 285.952057,139.310013 
	C284.872406,138.183792 284.220490,136.647568 283.516418,134.962524 
	C283.807190,134.701233 283.978424,134.750580 284.093964,134.859192 
	C295.871704,145.930908 295.804016,147.534897 282.746033,160.221771 
z"/>
<path fill="#724ED5" opacity="1.000000" stroke="none" 
	d="
M283.218628,134.053421 
	C281.862610,133.644455 279.986511,133.313156 278.919342,132.203751 
	C275.908447,129.073746 273.229645,125.624260 270.577942,121.973877 
	C274.846588,125.690002 278.957214,129.732925 283.218628,134.053421 
z"/>
<path fill="#8662E6" opacity="1.000000" stroke="none" 
	d="
M226.027100,276.357483 
	C231.327286,277.292023 234.102081,281.442596 236.592194,286.129456 
	C233.008423,283.227234 229.558884,279.955444 226.027100,276.357483 
z"/>
<path fill="#724ED5" opacity="1.000000" stroke="none" 
	d="
M200.937286,155.751221 
	C199.863022,155.526184 198.823715,154.886673 197.496735,154.135681 
	C199.155457,151.647690 201.101852,149.271194 203.339630,146.747681 
	C202.744736,149.512695 201.858490,152.424713 200.937286,155.751221 
z"/>
<path fill="#8662E6" opacity="1.000000" stroke="none" 
	d="
M216.056107,266.342407 
	C218.669601,267.848572 222.919861,267.924591 223.101074,272.745300 
	C220.694839,270.918823 218.415253,268.793610 216.056107,266.342407 
z"/>
<path fill="#4F37A2" opacity="1.000000" stroke="none" 
	d="
M205.376770,240.887909 
	C206.949310,238.523026 208.821930,236.021439 211.032532,233.550827 
	C209.472656,235.971619 207.574753,238.361420 205.376770,240.887909 
z"/>
<path fill="#724ED5" opacity="1.000000" stroke="none" 
	d="
M208.648636,141.125473 
	C207.411453,142.876770 205.865677,144.745636 203.958130,146.621353 
	C205.177597,144.833145 206.758820,143.038101 208.648636,141.125473 
z"/>
<path fill="#724ED5" opacity="1.000000" stroke="none" 
	d="
M240.798157,184.784973 
	C243.007233,185.345016 245.409027,186.171310 247.902725,187.315842 
	C245.660034,186.773132 243.325455,185.912170 240.798157,184.784973 
z"/>
<path fill="#724ED5" opacity="1.000000" stroke="none" 
	d="
M224.671173,125.167000 
	C223.237213,127.034805 221.491165,128.994812 219.385529,130.951782 
	C220.803650,129.052216 222.581375,127.155708 224.671173,125.167000 
z"/>
<path fill="#4F37A2" opacity="1.000000" stroke="none" 
	d="
M200.296295,243.833847 
	C201.411392,242.885788 202.882935,242.026535 204.694931,241.121307 
	C203.574509,242.024429 202.113617,242.973541 200.296295,243.833847 
z"/>
<path fill="#724ED5" opacity="1.000000" stroke="none" 
	d="
M228.777832,121.304535 
	C227.981430,122.463493 226.895416,123.733078 225.452362,125.000885 
	C226.226288,123.804466 227.357269,122.609810 228.777832,121.304535 
z"/>
<path fill="#724ED5" opacity="1.000000" stroke="none" 
	d="
M216.660034,133.114655 
	C215.878036,134.326492 214.785889,135.619080 213.356918,136.941711 
	C214.130035,135.712982 215.239944,134.454208 216.660034,133.114655 
z"/>
<path fill="#4F37A2" opacity="1.000000" stroke="none" 
	d="
M217.103912,227.590454 
	C217.475555,226.665314 218.123337,225.617035 219.097031,224.603302 
	C218.741974,225.581009 218.061020,226.524155 217.103912,227.590454 
z"/>
<path fill="#4F37A2" opacity="1.000000" stroke="none" 
	d="
M214.225296,230.756256 
	C214.666183,229.900833 215.403076,228.961060 216.442749,227.941193 
	C216.004105,228.798050 215.262695,229.734970 214.225296,230.756256 
z"/>
<path fill="#4F37A2" opacity="1.000000" stroke="none" 
	d="
M190.147690,241.298035 
	C190.966583,241.443375 191.906387,241.882904 192.914917,242.645538 
	C192.078629,242.509827 191.173599,242.051010 190.147690,241.298035 
z"/>
<path fill="#724ED5" opacity="1.000000" stroke="none" 
	d="
M270.246216,121.030289 
	C269.615631,120.756058 268.844543,120.247742 268.074188,119.374878 
	C268.751831,119.605629 269.428802,120.200928 270.246216,121.030289 
z"/>
<path fill="#8662E6" opacity="1.000000" stroke="none" 
	d="
M223.998962,274.327545 
	C224.580765,274.484283 225.232224,274.944336 225.926468,275.729980 
	C225.335709,275.580658 224.702164,275.105774 223.998962,274.327545 
z"/>
<path fill="#8662E6" opacity="1.000000" stroke="none" 
	d="
M236.603485,286.807159 
	C237.236557,286.936707 237.968704,287.341980 238.584320,288.132843 
	C237.879364,288.039917 237.290955,287.561401 236.603485,286.807159 
z"/>
<path fill="#724ED5" opacity="1.000000" stroke="none" 
	d="
M218.657043,131.086792 
	C218.514587,131.645691 218.080643,132.267029 217.338806,132.927765 
	C217.475800,132.361176 217.920670,131.755188 218.657043,131.086792 
z"/>
<path fill="#724ED5" opacity="1.000000" stroke="none" 
	d="
M212.675720,137.077255 
	C212.523132,137.638641 212.075500,138.259918 211.317993,138.917023 
	C211.465637,138.347626 211.923141,137.742386 212.675720,137.077255 
z"/>
<path fill="#4F37A2" opacity="1.000000" stroke="none" 
	d="
M187.014954,238.361145 
	C187.594864,238.489197 188.248154,238.921844 188.951431,239.667328 
	C188.363708,239.542023 187.726013,239.103867 187.014954,238.361145 
z"/>
<path fill="#4F37A2" opacity="1.000000" stroke="none" 
	d="
M211.817383,233.262512 
	C211.821228,232.919312 212.054901,232.472290 212.569702,231.979568 
	C212.582977,232.342148 212.315079,232.750412 211.817383,233.262512 
z"/>
<path fill="#724ED5" opacity="1.000000" stroke="none" 
	d="
M280.199829,162.764038 
	C280.239410,162.357742 280.540863,161.889465 281.139282,161.432800 
	C281.111389,161.863632 280.786530,162.282852 280.199829,162.764038 
z"/>
<path fill="#724ED5" opacity="1.000000" stroke="none" 
	d="
M230.411163,119.723526 
	C230.367844,120.077385 230.065262,120.518280 229.474976,121.010361 
	C229.508820,120.644547 229.830368,120.227554 230.411163,119.723526 
z"/>
<path fill="#724ED5" opacity="1.000000" stroke="none" 
	d="
M281.691437,161.294891 
	C281.596039,161.075455 281.714691,160.753891 282.112122,160.416412 
	C282.338318,160.731491 282.176483,160.995560 281.691437,161.294891 
z"/>
<path fill="#4F37A2" opacity="1.000000" stroke="none" 
	d="
M177.901581,171.348602 
	C178.068542,171.596832 177.928589,171.813171 177.513824,172.042877 
	C177.278336,171.786713 177.396896,171.540207 177.901581,171.348602 
z"/>
<path fill="#724ED5" opacity="1.000000" stroke="none" 
	d="
M232.356842,117.717194 
	C232.446136,117.943604 232.312698,118.262489 231.898468,118.590897 
	C231.680267,118.265282 231.852417,118.001694 232.356842,117.717194 
z"/>
<path fill="#342674" opacity="1.000000" stroke="none" 
	d="
M185.845062,163.232574 
	C185.973770,163.460907 185.807251,163.686829 185.393555,163.972504 
	C185.174347,163.726212 185.308823,163.458847 185.845062,163.232574 
z"/>
<path fill="#342674" opacity="1.000000" stroke="none" 
	d="
M184.891235,164.313232 
	C185.009109,164.527374 184.842590,164.749023 184.405273,164.996857 
	C184.266159,164.777710 184.423615,164.543610 184.891235,164.313232 
z"/>
<path fill="#724ED5" opacity="1.000000" stroke="none" 
	d="
M210.713486,139.073425 
	C210.873001,139.325912 210.702805,139.577454 210.226257,139.858551 
	C210.021500,139.596313 210.176132,139.324432 210.713486,139.073425 
z"/>
<path fill="#4F37A2" opacity="1.000000" stroke="none" 
	d="
M180.890594,168.381287 
	C181.056381,168.634369 180.919067,168.841446 180.511520,169.052399 
	C180.274063,168.792831 180.389450,168.552490 180.890594,168.381287 
z"/>
<path fill="#724ED5" opacity="1.000000" stroke="none" 
	d="
M231.359711,118.729080 
	C231.459335,118.952576 231.333099,119.276115 230.929077,119.632858 
	C230.691711,119.317642 230.852570,119.038658 231.359711,118.729080 
z"/>
<path fill="#4F37A2" opacity="1.000000" stroke="none" 
	d="
M179.882782,169.328857 
	C180.052475,169.591934 179.905930,169.810181 179.479797,170.038544 
	C179.230103,169.767151 179.352203,169.512283 179.882782,169.328857 
z"/>
<path fill="#4F37A2" opacity="1.000000" stroke="none" 
	d="
M178.889191,170.318268 
	C179.059952,170.574402 178.915619,170.795731 178.493042,171.034271 
	C178.243011,170.769424 178.362778,170.513428 178.889191,170.318268 
z"/>
<path fill="#342674" opacity="1.000000" stroke="none" 
	d="
M230.142227,212.672684 
	C230.029404,212.456467 230.184540,212.253235 230.579834,212.024933 
	C230.754761,212.260834 230.618149,212.489426 230.142227,212.672684 
z"/>
<path fill="#4F37A2" opacity="1.000000" stroke="none" 
	d="
M193.116791,243.231262 
	C193.333755,242.977783 193.592743,243.061813 193.926758,243.435898 
	C194.038773,243.612030 193.580551,243.730377 193.580551,243.730377 
	C193.580551,243.730377 193.195786,243.454865 193.116791,243.231262 
z"/>
<path fill="#4F37A2" opacity="1.000000" stroke="none" 
	d="
M176.896118,172.350342 
	C177.050812,172.608246 176.895370,172.822815 176.456375,173.036469 
	C176.247406,172.771286 176.385132,172.528427 176.896118,172.350342 
z"/>
<path fill="#4F37A2" opacity="1.000000" stroke="none" 
	d="
M175.876511,173.292267 
	C176.045349,173.544479 175.898422,173.772995 175.463287,174.015778 
	C175.233582,173.753586 175.362137,173.499756 175.876511,173.292267 
z"/>
<path fill="#4F37A2" opacity="1.000000" stroke="none" 
	d="
M173.873627,175.266296 
	C174.108429,175.403671 174.104538,175.585281 174.053314,176.037415 
	C174.005981,176.307953 173.613754,176.227722 173.418732,176.182678 
	C173.182358,175.773193 173.319427,175.497498 173.873627,175.266296 
z"/>
<path fill="#4F37A2" opacity="1.000000" stroke="none" 
	d="
M172.895203,176.306122 
	C173.084991,176.573013 172.936630,176.813522 172.465393,177.049225 
	C172.243515,176.777985 172.381683,176.523087 172.895203,176.306122 
z"/>
<path fill="#724ED5" opacity="1.000000" stroke="none" 
	d="
M233.362411,116.710274 
	C233.450729,116.939224 233.313217,117.256798 232.895111,117.583595 
	C232.678619,117.255890 232.852631,116.991249 233.362411,116.710274 
z"/>
<path fill="#4F37A2" opacity="1.000000" stroke="none" 
	d="
M171.869659,177.269775 
	C172.061646,177.545731 171.912521,177.786316 171.453461,178.035339 
	C171.190247,177.750351 171.318588,177.480560 171.869659,177.269775 
z"/>
<path fill="#4F37A2" opacity="1.000000" stroke="none" 
	d="
M170.882721,178.288452 
	C171.079422,178.562561 170.934311,178.800644 170.475159,179.041733 
	C170.217606,178.761520 170.344208,178.497406 170.882721,178.288452 
z"/>
<path fill="#7955DD" opacity="1.000000" stroke="none" 
	d="
M257.759033,215.808563 
	C257.569214,215.940979 257.346039,215.807251 257.062073,215.433502 
	C257.264038,215.247940 257.505493,215.364258 257.759033,215.808563 
z"/>
<path fill="#7955DD" opacity="1.000000" stroke="none" 
	d="
M256.729492,214.825592 
	C256.514099,214.954041 256.310089,214.809280 256.050934,214.442978 
	C256.282349,214.210815 256.530731,214.321136 256.729492,214.825592 
z"/>
<path fill="#7955DD" opacity="1.000000" stroke="none" 
	d="
M255.592148,213.939117 
	C255.592285,214.058548 255.337936,213.971329 255.289154,213.926544 
	C255.240372,213.881775 255.592010,213.819672 255.592148,213.939117 
z"/>
<path fill="#4F37A2" opacity="1.000000" stroke="none" 
	d="
M169.886566,179.302032 
	C170.058685,179.590714 169.889038,179.821564 169.391296,180.019592 
	C169.196014,179.731003 169.356552,179.483490 169.886566,179.302032 
z"/>
<path fill="#7955DD" opacity="1.000000" stroke="none" 
	d="
M247.772949,249.785370 
	C247.789185,242.865250 247.805405,235.945114 247.935303,228.224213 
	C248.041595,226.957367 248.034210,226.491287 248.026794,226.025223 
	C249.470901,221.737701 250.915009,217.450180 252.699249,213.306671 
	C253.027206,214.087830 253.014999,214.725006 253.003387,215.680573 
	C252.260895,218.716019 251.077774,221.399933 250.870346,224.157242 
	C250.489868,229.215057 250.895279,234.329422 250.576691,239.395264 
	C250.294998,243.874664 249.474106,248.320145 248.476929,252.497833 
	C247.966064,251.405167 247.869522,250.595276 247.772949,249.785370 
z"/>
<path fill="#724ED5" opacity="1.000000" stroke="none" 
	d="
M210.047699,166.484482 
	C209.367416,166.129288 208.657913,165.429825 207.869446,164.431061 
	C208.533157,164.801224 209.275833,165.470718 210.047699,166.484482 
z"/>
<path fill="#4F37A2" opacity="1.000000" stroke="none" 
	d="
M247.442459,249.813324 
	C247.869522,250.595276 247.966064,251.405167 248.109314,252.621002 
	C247.941025,253.905441 247.726013,254.783936 247.511002,255.662415 
	C246.884171,256.189972 246.257355,256.717499 245.630524,257.245026 
	C244.511688,255.360733 243.392853,253.476440 242.086563,251.308533 
	C240.960159,248.888641 240.021210,246.752335 239.091888,244.254211 
	C241.771652,245.875351 244.441803,247.858322 247.442459,249.813324 
z"/>
<path fill="#050506" opacity="1.000000" stroke="none" 
	d="
M107.535332,332.958374 
	C118.063675,336.467499 121.795265,347.155975 115.186234,354.464111 
	C113.445374,352.815186 111.705544,351.167267 109.754425,349.319183 
	C108.278076,350.370911 106.696686,351.497467 104.615692,352.979919 
	C106.384918,355.210083 108.034126,357.288971 109.887291,359.624939 
	C103.711136,362.114441 99.066376,360.399536 95.170456,356.194794 
	C91.175240,351.882904 90.378777,345.523560 92.875076,340.431335 
	C95.807549,334.449310 100.566574,332.021637 107.535332,332.958374 
z"/>
<path fill="#050506" opacity="1.000000" stroke="none" 
	d="
M286.097351,344.539978 
	C287.472198,353.807526 282.240723,360.384186 269.108002,358.115906 
	C269.108002,351.039703 269.108002,343.871704 269.108002,336.718292 
	C279.094696,334.877350 282.919556,336.566223 286.097351,344.539978 
z"/>
<path fill="#050506" opacity="1.000000" stroke="none" 
	d="
M217.744781,348.490356 
	C218.821823,345.094818 219.859146,342.147369 221.371857,337.849152 
	C223.221634,342.950623 224.584610,346.709564 226.273666,351.367828 
	C222.914612,350.105011 219.370712,353.893311 217.744781,348.490356 
z"/>
<path fill="#4F37A2" opacity="1.000000" stroke="none" 
	d="
M247.833527,226.183182 
	C248.034210,226.491287 248.041595,226.957367 247.955261,227.762512 
	C247.787766,227.514771 247.713989,226.927948 247.833527,226.183182 
z"/>
</svg>